<svg width="19" height="18" viewBox="0 0 19 18" fill="none" xmlns="http://www.w3.org/2000/svg">
<path d="M15.9051 5.11526L11.5851 2.09276C10.4076 1.26776 8.60005 1.31276 7.46755 2.19026L3.71005 5.12276C2.96005 5.70776 2.36755 6.90776 2.36755 7.85276V13.0278C2.36755 14.9403 3.92005 16.5003 5.83255 16.5003H13.9176C15.8301 16.5003 17.3826 14.9478 17.3826 13.0353V7.95026C17.3826 6.93776 16.7301 5.69276 15.9051 5.11526ZM10.4376 13.5003C10.4376 13.8078 10.1826 14.0628 9.87505 14.0628C9.56755 14.0628 9.31255 13.8078 9.31255 13.5003V11.2503C9.31255 10.9428 9.56755 10.6878 9.87505 10.6878C10.1826 10.6878 10.4376 10.9428 10.4376 11.2503V13.5003Z" fill="#015656"/>
</svg>
