<svg width="19" height="18" viewBox="0 0 19 18" fill="none" xmlns="http://www.w3.org/2000/svg">
<path d="M6.84253 4.7175C6.52753 4.7175 6.28003 4.4625 6.28003 4.155V2.0625C6.28003 1.755 6.52753 1.5 6.84253 1.5C7.15753 1.5 7.40503 1.755 7.40503 2.0625V4.1475C7.40503 4.4625 7.15753 4.7175 6.84253 4.7175Z" fill="#015656"/>
<path d="M12.4075 4.7175C12.0925 4.7175 11.845 4.4625 11.845 4.155V2.0625C11.845 1.7475 12.1 1.5 12.4075 1.5C12.7225 1.5 12.97 1.755 12.97 2.0625V4.1475C12.97 4.4625 12.7225 4.7175 12.4075 4.7175Z" fill="#015656"/>
<path d="M15.3025 3.375C14.8075 3.0075 14.095 3.36 14.095 3.9825V4.0575C14.095 4.935 13.465 5.745 12.5875 5.835C11.575 5.94 10.72 5.145 10.72 4.155V3.375C10.72 2.9625 10.3825 2.625 9.97 2.625H9.28C8.8675 2.625 8.53 2.9625 8.53 3.375V4.155C8.53 4.7475 8.2225 5.2725 7.7575 5.565C7.69 5.61 7.615 5.6475 7.54 5.685C7.4725 5.7225 7.3975 5.7525 7.315 5.775C7.225 5.805 7.1275 5.8275 7.0225 5.835C6.9025 5.85 6.7825 5.85 6.6625 5.835C6.5575 5.8275 6.46 5.805 6.37 5.775C6.295 5.7525 6.22 5.7225 6.145 5.685C6.07 5.6475 5.995 5.61 5.9275 5.565C5.455 5.235 5.155 4.665 5.155 4.0575V3.9825C5.155 3.405 4.54 3.06 4.0525 3.3075C4.045 3.315 4.0375 3.315 4.03 3.3225C4 3.3375 3.9775 3.3525 3.9475 3.375C3.925 3.3975 3.895 3.4125 3.8725 3.435C3.6625 3.6 3.475 3.7875 3.3175 3.99C3.235 4.08 3.1675 4.1775 3.1075 4.275C3.1 4.2825 3.0925 4.29 3.085 4.305C3.0175 4.4025 2.9575 4.515 2.905 4.62C2.89 4.635 2.8825 4.6425 2.8825 4.6575C2.8375 4.7475 2.7925 4.8375 2.7625 4.935C2.74 4.9725 2.7325 5.0025 2.7175 5.04C2.6725 5.1525 2.6425 5.265 2.6125 5.3775C2.5825 5.4825 2.56 5.595 2.545 5.7075C2.53 5.79 2.5225 5.8725 2.515 5.9625C2.5075 6.0675 2.5 6.1725 2.5 6.2775V12.8475C2.5 14.865 4.135 16.5 6.1525 16.5H13.0975C15.115 16.5 16.75 14.865 16.75 12.8475V6.2775C16.75 5.085 16.18 4.0425 15.3025 3.375ZM9.625 13.065H6.145C5.8375 13.065 5.5825 12.81 5.5825 12.5025C5.5825 12.1875 5.8375 11.9325 6.145 11.9325H9.625C9.94 11.9325 10.1875 12.1875 10.1875 12.5025C10.1875 12.81 9.94 13.065 9.625 13.065ZM11.71 10.2825H6.145C5.8375 10.2825 5.5825 10.0275 5.5825 9.72C5.5825 9.405 5.8375 9.15 6.145 9.15H11.71C12.025 9.15 12.28 9.405 12.28 9.72C12.28 10.0275 12.025 10.2825 11.71 10.2825Z" fill="#015656"/>
</svg>
