<svg width="20" height="16" viewBox="0 0 20 16" fill="none" xmlns="http://www.w3.org/2000/svg">
<mask id="mask0_5983_3911" style="mask-type:luminance" maskUnits="userSpaceOnUse" x="0" y="0" width="20" height="16">
<path d="M19.2592 0.222168H0.740723V15.4395H19.2592V0.222168Z" fill="white"/>
</mask>
<g mask="url(#mask0_5983_3911)">
<path d="M2.29252 11.6555C1.88109 11.655 1.48665 11.4914 1.19573 11.2005C0.904804 10.9095 0.741171 10.5151 0.740723 10.1036V1.77228C0.741171 1.361 0.90486 0.966735 1.19583 0.676079C1.4868 0.385427 1.88125 0.222168 2.29252 0.222168H17.7091C18.1201 0.222616 18.5141 0.386072 18.8047 0.676675C19.0954 0.967283 19.2588 1.3613 19.2592 1.77228V6.88524C19.2591 7.5305 19.0127 8.15135 18.5703 8.62109C18.3052 8.90983 17.4964 9.71191 16.9054 10.2978C16.7011 10.4988 16.5238 10.6744 16.3988 10.7926C15.8365 11.3667 15.1999 11.6504 14.511 11.6504L2.29252 11.6555Z" fill="url(#paint0_linear_5983_3911)"/>
<path d="M11.6607 0.774414C11.8302 0.890396 11.9633 1.05207 12.0446 1.24066C12.1259 1.42926 12.152 1.63704 12.12 1.83989C12.0693 2.24685 11.7704 2.62507 11.5712 2.94759C11.4935 3.07426 11.4192 3.19415 11.3567 3.31741C11.1996 3.61052 11.1343 3.94411 11.1693 4.27481C11.1965 4.50722 11.2469 4.7363 11.3196 4.9587C11.1339 4.89396 10.9621 4.79485 10.813 4.66655C10.5695 4.42063 10.3621 4.14148 10.1967 3.83748C9.61076 2.83278 8.91842 2.12189 8.13664 1.72C7.53702 1.42458 6.87672 1.27309 6.20827 1.27761C5.9862 1.27771 5.76438 1.29408 5.54468 1.32658C4.60513 1.46594 3.75701 1.96633 3.18068 2.72133C2.89946 3.08852 2.67203 3.49389 2.50526 3.9253C2.35115 4.32904 2.26278 4.75489 2.24353 5.18663C2.21145 5.933 2.43096 6.72322 2.89363 7.55063C3.52852 8.68307 4.52679 9.56833 5.72705 10.0632C7.21298 10.6407 8.70568 10.7066 10.4838 10.3131C11.3128 10.1308 12.0406 10.0599 12.8038 10.3131C13.2961 10.5184 13.7625 10.7808 14.1935 11.0949H13.1804C12.9338 10.9413 12.6689 10.8193 12.3918 10.7319C11.7519 10.563 11.1676 10.7032 10.4871 10.8383C9.60524 11.0335 8.70079 11.1073 7.7989 11.0578C7.02324 10.998 6.26098 10.8215 5.53794 10.5343C4.8492 10.2621 4.21879 9.86093 3.6805 9.35233C3.19166 8.89548 2.77491 8.36715 2.44447 7.78533C1.9379 6.88533 1.69306 6.00222 1.72683 5.1613C1.74838 4.676 1.84699 4.19722 2.01895 3.74293C2.2037 3.26759 2.4556 2.82122 2.76698 2.41741C3.42509 1.5545 4.39487 0.98354 5.46868 0.826762C5.65824 0.797377 5.84942 0.779896 6.04113 0.774414H6.37883C7.07087 0.79151 7.75061 0.961018 8.36964 1.27085C8.83935 1.51633 9.26457 1.83881 9.62765 2.22489C10.0143 2.6343 10.3515 3.08767 10.6323 3.57574C10.6543 3.61626 10.6779 3.65341 10.7016 3.69055C10.7385 3.48178 10.8081 3.28007 10.9076 3.09281C10.9785 2.95267 11.0612 2.81926 11.1406 2.69093C11.3516 2.35322 11.5611 2.0763 11.5306 1.72507C11.5085 1.52141 11.4332 1.32716 11.3123 1.16178C11.1913 0.99641 11.0291 0.865733 10.8417 0.782858L11.6607 0.774414Z" fill="white"/>
<path d="M3.58577 0.769451C3.24015 0.905836 2.93256 1.12364 2.68914 1.40435C2.68011 1.18524 2.6374 0.968814 2.5625 0.762695L3.58577 0.769451Z" fill="white"/>
<path d="M5.10567 11.1017H4.01656C3.72297 10.9252 3.44095 10.73 3.17226 10.5175C2.40375 9.91664 1.76548 9.16579 1.29626 8.31053V7.01709C1.92272 9.01128 3.46945 10.3841 5.10567 11.1017Z" fill="white"/>
<path d="M10.5528 2.22489C10.3448 1.96378 10.1191 1.71722 9.87741 1.48699C9.57544 1.2023 9.23426 0.962333 8.86426 0.774414H9.85881C10.0384 0.878392 10.211 0.994025 10.3755 1.12057C10.5111 1.21866 10.6307 1.33713 10.7301 1.47179C10.7723 1.53153 10.8013 1.59955 10.8153 1.67134C10.8292 1.74315 10.8278 1.81707 10.811 1.88826C10.7943 1.95944 10.7626 2.02626 10.7181 2.0843C10.6736 2.14233 10.6172 2.19026 10.5528 2.22489Z" fill="white"/>
<path d="M18.7072 1.77231V1.99857C18.362 1.65733 17.9196 1.4314 17.4408 1.35186C16.8381 1.24147 16.2201 1.2449 15.6188 1.36199C15.3859 1.4064 15.1592 1.47839 14.9433 1.57644L14.815 1.6406L14.6901 1.57306C14.2738 1.32522 13.7834 1.23251 13.3054 1.31133C13.345 1.50853 13.357 1.71028 13.3409 1.91076C13.74 1.95206 14.1281 2.06654 14.4858 2.2485C14.6298 2.33354 14.7675 2.42891 14.8978 2.53387C15.134 2.30539 15.4246 2.14094 15.7421 2.05598C16.1061 1.9432 16.4895 1.90643 16.8683 1.94791C17.2916 1.98565 17.6983 2.13035 18.0503 2.36839C18.2479 2.51354 18.4094 2.7022 18.5224 2.91972C18.6354 3.13728 18.6969 3.37791 18.7021 3.62298C18.7351 4.00617 18.67 4.39143 18.513 4.7425C18.2276 5.34702 17.5556 5.76746 16.74 5.86372C16.5391 6.37561 16.2499 6.84824 15.8856 7.26017C15.8451 7.3142 15.6593 7.55228 15.406 7.8292C15.4769 7.81065 15.5512 7.78868 15.6272 7.76165C16.2675 7.57206 16.8141 7.15061 17.1604 6.57965L17.2229 6.47328L17.3445 6.45639C17.8641 6.36124 18.3437 6.11383 18.7223 5.7455V6.40913C18.6206 6.48276 18.514 6.54931 18.4032 6.60835C18.1313 6.75861 17.8389 6.86839 17.5353 6.93428C17.1158 7.56035 16.4932 8.02257 15.7724 8.24291C15.4367 8.35335 15.0883 8.42087 14.7356 8.44383L14.0822 8.48606C14.4416 8.20783 14.7629 7.88369 15.0379 7.52187C15.279 7.2155 15.5045 6.89709 15.7133 6.56783C15.9091 6.27098 16.0749 5.95535 16.2081 5.62561L16.3769 5.19335C16.4815 5.22761 16.5881 5.25524 16.6961 5.27609C16.9704 5.30065 17.2458 5.24235 17.4866 5.10869C17.7275 4.97502 17.9226 4.77217 18.0469 4.52635C18.1671 4.25261 18.2153 3.95269 18.1871 3.65506C18.1432 2.95261 17.7042 2.56931 16.7991 2.44943C16.3043 2.38357 15.4347 2.55413 15.1544 3.03535L14.9856 3.33424L14.7542 3.07928C14.6039 2.92591 14.4335 2.79357 14.2476 2.68583C13.9062 2.51535 13.533 2.41817 13.1518 2.40046C13.0014 2.39906 12.8511 2.41035 12.7026 2.43424L12.7887 2.10665C12.847 1.79998 12.8141 1.483 12.6942 1.19482L12.5608 0.939848C12.8664 0.825678 13.1903 0.768448 13.5165 0.770992C13.9749 0.758859 14.4291 0.860378 14.8386 1.06649C15.2792 0.895596 15.7445 0.796955 16.2165 0.77437H16.8582C17.0846 0.78877 17.3101 0.815263 17.5336 0.853733C17.8919 0.917422 18.2354 1.0468 18.5468 1.23535C18.6506 1.39526 18.7063 1.58165 18.7072 1.77231Z" fill="white"/>
<path d="M1.31838 1.77215V3.61101C1.38086 3.40667 1.46191 3.19897 1.54465 2.98623C1.69594 2.63167 1.80915 2.26204 1.88236 1.8836C1.94221 1.55404 1.91723 1.21469 1.80975 0.897461C1.65896 0.98805 1.53436 1.11634 1.4482 1.26971C1.36204 1.42308 1.3173 1.59623 1.31838 1.77215Z" fill="white"/>
<path d="M16.5474 3.64678C16.2097 3.68564 16.0966 3.89501 15.5748 5.19352L15.5562 5.24082C15.1775 6.17952 14.6017 7.02597 13.8677 7.72301C12.8299 8.68738 11.5432 9.34241 10.1528 9.61419C8.83136 9.91552 7.45188 9.84004 6.17117 9.39638C5.11002 9.03504 4.19617 8.33645 3.56911 7.40723C3.16985 6.79667 2.96389 6.07993 2.97811 5.35056C3.01138 4.56008 3.29192 3.79993 3.78017 3.17738C4.00384 2.88119 4.28525 2.63345 4.60743 2.44912C4.92958 2.26482 5.2858 2.14782 5.65447 2.10512C5.80232 2.08652 5.95128 2.07804 6.10028 2.07982C6.69039 2.08204 7.27191 2.22138 7.79895 2.48675C8.20614 2.69293 8.57236 2.9716 8.87965 3.30908C9.13165 3.5876 9.35247 3.89278 9.53817 4.21923C10.5344 5.94156 12.1369 5.98545 13.199 5.50086C13.401 5.40775 13.5745 5.26238 13.7015 5.07982C13.8285 4.8973 13.9046 4.68412 13.9217 4.46238C13.936 4.32623 13.912 4.18875 13.8523 4.06552C13.7926 3.9423 13.6997 3.83823 13.584 3.76501C13.1365 3.4999 12.7938 3.61471 12.6232 3.80889C12.5374 3.90064 12.4874 4.02004 12.4821 4.14552C12.4769 4.27097 12.5167 4.39419 12.5945 4.49278C12.6654 4.57552 12.8157 4.55356 12.8799 4.53497C13.0318 4.49278 13.1416 4.16349 13.1416 4.16349C13.2229 4.20912 13.2902 4.2763 13.3358 4.35767C13.3661 4.4136 13.3838 4.47549 13.3875 4.53901C13.3911 4.60252 13.3807 4.66604 13.357 4.72508C13.3333 4.78412 13.2969 4.83715 13.2503 4.88049C13.2037 4.92382 13.1481 4.95634 13.0875 4.97571C12.7296 5.13441 12.3699 5.08378 12.1639 4.82204C12.014 4.62449 11.9394 4.37989 11.9536 4.1323C11.9678 3.88467 12.07 3.65027 12.2416 3.47119C12.3478 3.35286 12.4781 3.25849 12.6237 3.19445C12.7693 3.13041 12.9268 3.09808 13.0859 3.09971C13.3552 3.10515 13.6179 3.18397 13.8457 3.32767C14.0472 3.44634 14.2084 3.62282 14.3084 3.83423C14.4014 4.03834 14.4432 4.26208 14.43 4.48601C14.4092 4.80212 14.3029 5.1066 14.1223 5.36686C13.9418 5.62712 13.6938 5.83338 13.405 5.96352C12.7513 6.26086 12.021 6.34649 11.3162 6.20834C10.8885 6.1176 10.4853 5.9356 10.1342 5.67478C9.70962 5.35001 9.35569 4.94208 9.0941 4.47589C8.74721 3.82419 8.2148 3.29001 7.56425 2.94097C6.52917 2.41752 5.02465 2.36178 4.18373 3.4813C3.3192 4.6363 3.24997 5.96352 3.99632 7.13538C4.91151 8.56727 7.13536 9.73578 10.0414 9.11775C13.2868 8.42882 14.5954 6.27419 15.0936 5.05167L15.1121 5.00441C15.278 4.53819 15.4819 4.08638 15.7217 3.65356C15.7989 3.51156 15.9101 3.39093 16.0454 3.30252C16.1806 3.21408 16.3358 3.16064 16.4968 3.14697C16.6544 3.12167 16.8159 3.14156 16.9626 3.20434C17.1094 3.26708 17.2353 3.37015 17.3259 3.5016C17.4031 3.60982 17.4487 3.73741 17.4577 3.87012C17.4666 4.00278 17.4385 4.13534 17.3765 4.25301C17.308 4.37838 17.1955 4.47401 17.0608 4.52149C16.5221 4.69034 16.4816 4.21245 16.4816 4.21245C16.7197 4.25975 16.8801 4.18545 16.9324 4.0436C16.9552 3.9536 16.9432 3.8583 16.8987 3.77682C16.8595 3.7229 16.8052 3.68178 16.7427 3.65867C16.6802 3.63552 16.6123 3.63141 16.5474 3.64678Z" fill="white"/>
<path d="M14.1329 9.17186C13.9921 9.28063 13.8443 9.37989 13.6904 9.46904C14.3809 9.79949 15.0164 10.234 15.5749 10.7574C15.4161 10.8703 15.239 10.9548 15.0514 11.0073C14.3591 10.391 13.633 9.94689 13.042 9.78311L12.4291 9.61426C12.7556 9.47993 13.0698 9.31719 13.3679 9.12793C13.3679 9.12793 13.8829 9.18367 14.1329 9.17186Z" fill="white"/>
<path d="M7.33614 7.23507C7.06448 7.1927 6.80522 7.09189 6.57629 6.93959C6.15292 6.67578 5.81555 6.29441 5.60537 5.84204C5.52122 5.65289 5.48748 5.44522 5.50744 5.23919C5.53133 5.12937 5.57851 5.02596 5.64577 4.93596C5.71307 4.84593 5.79892 4.77141 5.89748 4.71745C6.00988 4.65804 6.134 4.62422 6.26096 4.61841C6.38796 4.61256 6.51466 4.63485 6.632 4.68367C6.96974 4.812 7.17403 5.18011 7.30744 5.42663C7.32096 5.44859 7.33277 5.47222 7.34629 5.49248C7.55737 5.8547 7.80518 6.19422 8.08588 6.50563C8.63366 7.09659 9.30625 7.55804 10.0547 7.85648L10.9497 8.15874L10.0277 8.34785C9.51129 8.44452 8.98577 8.48359 8.46074 8.46437C7.38848 8.41541 6.65059 8.22796 5.91944 7.82104C5.293 7.44896 4.79155 6.89874 4.47907 6.24052C4.34788 5.93307 4.28733 5.60015 4.30177 5.26622C4.30837 4.89037 4.41377 4.52293 4.6074 4.20074C4.83707 3.83263 5.29974 3.38852 6.20481 3.35645C6.55777 3.36593 6.90403 3.45482 7.21796 3.61648C7.73488 3.90156 8.15696 4.33185 8.43203 4.85422C8.76144 5.4603 9.245 5.96867 9.83381 6.32804C10.4227 6.68737 11.0959 6.88493 11.7855 6.90074C12.2032 6.90085 12.6203 6.86982 13.0334 6.80789C12.6827 7.13067 12.2411 7.33759 11.7686 7.40056C11.0097 7.37926 10.2687 7.16482 9.6157 6.77748C8.94618 6.37004 8.39081 5.79956 8.00144 5.1193C7.77518 4.68256 7.42666 4.32111 6.99844 4.07915C6.75433 3.95204 6.48492 3.88107 6.20988 3.87145C5.66614 3.88833 5.26933 4.0893 5.02788 4.47089C4.89514 4.70748 4.81759 4.97096 4.80092 5.2417C4.78425 5.51244 4.82892 5.78345 4.93163 6.03452C5.19688 6.59774 5.62511 7.06833 6.16088 7.38537C6.81944 7.74504 7.49488 7.91389 8.48607 7.95782C8.68744 7.96804 8.88918 7.96804 9.09055 7.95782C8.57822 7.66267 8.11362 7.29145 7.7127 6.85685C7.41033 6.51589 7.14222 6.146 6.91233 5.75252L6.87177 5.67993C6.77555 5.51108 6.61174 5.224 6.44966 5.16152C6.40133 5.13882 6.34855 5.127 6.29514 5.127C6.24174 5.127 6.18896 5.13882 6.14063 5.16152C6.10774 5.17915 6.0787 5.20319 6.05522 5.23215C6.03174 5.26115 6.01429 5.29456 6.00385 5.33037C6.00629 5.43245 6.02748 5.53319 6.06633 5.62756C6.24962 5.96141 6.46996 6.27352 6.72318 6.55796C6.88866 6.75048 7.33614 7.23507 7.33614 7.23507Z" fill="white"/>
<path d="M18.1229 8.28842L17.8814 8.53665C17.6679 8.50028 17.4633 8.42346 17.2786 8.31039C17.4664 8.16735 17.6365 8.00239 17.7852 7.81902L17.9405 7.56235C17.9405 7.56235 18.4471 7.4762 18.6852 7.22461C18.6852 7.22461 18.6632 7.32424 18.6683 7.32087C18.5993 7.65594 18.4386 7.9652 18.2039 8.21413H18.1921L18.1229 8.28842Z" fill="white"/>
<path d="M16.1557 10.2625C15.7879 10.0492 15.4442 9.79667 15.1307 9.50937C15.0087 9.39552 14.8765 9.29319 14.7356 9.20374C14.7356 9.20374 15.021 9.17167 15.3232 9.11593C15.7591 9.02793 16.1826 8.8873 16.5846 8.69715L16.7214 8.62793L16.8902 8.75626C17.0409 8.8773 17.2126 8.96949 17.3968 9.02812C17.2719 9.15815 17.1317 9.30167 17.0152 9.41141C16.9171 9.36226 16.8228 9.30582 16.7332 9.24256C16.4831 9.3583 16.2216 9.44771 15.9531 9.50937C16.1348 9.64634 16.3274 9.7683 16.5289 9.87412L16.1557 10.2625Z" fill="white"/>
<path d="M2.78727 11.1017H2.2959C2.03107 11.1017 1.77706 10.9966 1.58965 10.8095C1.40223 10.6224 1.29671 10.3686 1.29626 10.1037V9.59717C1.6306 10.1544 2.07807 10.5917 2.78727 11.1017Z" fill="white"/>
<path d="M2.89353 15.0817H2.51529C2.51529 14.1817 2.09822 13.8474 1.93274 13.7494C1.76388 13.8474 1.35018 14.1834 1.35018 15.0817H0.973633C0.973633 13.7089 1.83143 13.3746 1.86857 13.3611L1.93274 13.3374L1.99859 13.3611C2.03574 13.3796 2.89353 13.714 2.89353 15.0817Z" fill="url(#paint1_linear_5983_3911)"/>
<path d="M7.09457 15.0815H6.71802C6.71802 14.1815 6.29928 13.8472 6.13546 13.7492C5.96661 13.8472 5.5529 14.1832 5.5529 15.0815H5.17468C5.17468 13.7087 6.03246 13.3744 6.06961 13.3609L6.1439 13.3423L6.20809 13.3659C6.23679 13.3794 7.09457 13.7138 7.09457 15.0815Z" fill="url(#paint2_linear_5983_3911)"/>
<path d="M11.0982 13.4033H10.7487V15.0868H11.0982V13.4033Z" fill="url(#paint3_linear_5983_3911)"/>
<path d="M10.9142 12.6685C10.8699 12.6681 10.8264 12.6811 10.7894 12.7056C10.7524 12.7301 10.7236 12.7651 10.7067 12.8061C10.6897 12.8471 10.6853 12.8922 10.6941 12.9357C10.703 12.9792 10.7246 13.019 10.7562 13.0502C10.7878 13.0813 10.828 13.1023 10.8716 13.1104C10.9152 13.1186 10.9603 13.1135 11.001 13.0959C11.0417 13.0784 11.0763 13.049 11.1002 13.0116C11.1242 12.9743 11.1364 12.9306 11.1354 12.8863C11.1341 12.8284 11.1103 12.7732 11.069 12.7325C11.0277 12.6919 10.9722 12.6689 10.9142 12.6685Z" fill="url(#paint4_linear_5983_3911)"/>
<path d="M18.9924 15.0817H18.6158C18.6158 14.1834 18.1971 13.8474 18.0333 13.7494C17.8678 13.8507 17.4575 14.1868 17.4575 15.0817H17.0725C17.0725 13.7089 17.9303 13.3763 17.9674 13.3627L18.0333 13.3374L18.0975 13.3627C18.1329 13.3796 18.9924 13.7123 18.9924 15.0817Z" fill="url(#paint5_linear_5983_3911)"/>
<path d="M13.6954 13.3693L13.6313 13.3457L13.5654 13.3693C13.364 13.4562 13.1893 13.5949 13.0589 13.7712C12.9269 13.5964 12.7526 13.4581 12.5523 13.3693L12.4864 13.3457L12.4206 13.3693C12.3834 13.3829 11.5256 13.707 11.5256 15.0883H11.9039C11.9039 14.19 12.321 13.854 12.4864 13.756C12.6334 13.8501 12.7556 13.9781 12.8427 14.1292C12.7203 14.4314 12.6616 14.7556 12.6705 15.0816H13.0487C13.0487 14.1832 13.4658 13.8472 13.6313 13.7493C13.8002 13.8472 14.2139 14.1832 14.2139 15.0816H14.587C14.587 13.7155 13.7326 13.3829 13.6954 13.3693Z" fill="url(#paint6_linear_5983_3911)"/>
<path d="M15.8856 14.9888C16.1695 14.9915 16.4524 15.0233 16.7299 15.0833V15.0631C16.7295 14.9429 16.7362 14.8228 16.7501 14.7034C16.4434 14.6372 16.1301 14.6066 15.8164 14.6122H15.7691L16.6336 13.4707L16.6995 13.3931H14.9755V13.7696H15.938L14.9248 15.1002C15.239 15.0224 15.5619 14.985 15.8856 14.9888Z" fill="url(#paint7_linear_5983_3911)"/>
<path d="M8.61274 14.6813C8.82626 14.9157 9.01734 15.1695 9.18349 15.4395V13.4031H8.82552V14.3824C8.50056 14.0215 8.1176 13.7173 7.69248 13.4824L7.42908 13.3608V15.0815H7.77693V13.9518C8.08963 14.1529 8.37126 14.3987 8.61274 14.6813Z" fill="url(#paint8_linear_5983_3911)"/>
<path d="M3.27359 14.6544L3.14189 15.0073C3.37711 15.0856 3.62342 15.1255 3.87135 15.1255H3.92876C4.05372 15.1255 4.16347 15.112 4.25635 15.1002C4.50113 15.0727 4.73424 14.9806 4.93176 14.8333L3.76665 13.7527C3.83524 13.7403 3.90469 13.733 3.97435 13.7307C4.20128 13.721 4.4285 13.742 4.64976 13.7932L4.69535 13.6092L4.74095 13.4268C4.5288 13.3778 4.31198 13.3518 4.09424 13.3491H4.08243H3.98617H3.94902H3.86965H3.82913C3.56285 13.3816 3.30785 13.4758 3.08447 13.6243L4.25465 14.7084C4.14272 14.7245 4.02998 14.734 3.91695 14.7371C3.69943 14.7445 3.48216 14.7166 3.27359 14.6544Z" fill="url(#paint9_linear_5983_3911)"/>
</g>
<defs>
<linearGradient id="paint0_linear_5983_3911" x1="4.79665" y1="0.735494" x2="15.1071" y2="11.0459" gradientUnits="userSpaceOnUse">
<stop stop-color="#FF00AE"/>
<stop offset="1" stop-color="#6800FF"/>
</linearGradient>
<linearGradient id="paint1_linear_5983_3911" x1="-3.02659" y1="9.65633" x2="5.20011" y2="17.883" gradientUnits="userSpaceOnUse">
<stop stop-color="#FF00AE"/>
<stop offset="1" stop-color="#6800FF"/>
</linearGradient>
<linearGradient id="paint2_linear_5983_3911" x1="-0.92612" y1="7.55388" x2="7.30057" y2="15.7822" gradientUnits="userSpaceOnUse">
<stop stop-color="#FF00AE"/>
<stop offset="1" stop-color="#6800FF"/>
</linearGradient>
<linearGradient id="paint3_linear_5983_3911" x1="1.65402" y1="4.97566" x2="9.88072" y2="13.2024" gradientUnits="userSpaceOnUse">
<stop stop-color="#FF00AE"/>
<stop offset="1" stop-color="#6800FF"/>
</linearGradient>
<linearGradient id="paint4_linear_5983_3911" x1="2.32618" y1="4.3033" x2="10.5529" y2="12.53" gradientUnits="userSpaceOnUse">
<stop stop-color="#FF00AE"/>
<stop offset="1" stop-color="#6800FF"/>
</linearGradient>
<linearGradient id="paint5_linear_5983_3911" x1="5.02458" y1="1.60524" x2="13.2513" y2="9.83196" gradientUnits="userSpaceOnUse">
<stop stop-color="#FF00AE"/>
<stop offset="1" stop-color="#6800FF"/>
</linearGradient>
<linearGradient id="paint6_linear_5983_3911" x1="2.53741" y1="4.09067" x2="10.7641" y2="12.3174" gradientUnits="userSpaceOnUse">
<stop stop-color="#FF00AE"/>
<stop offset="1" stop-color="#6800FF"/>
</linearGradient>
<linearGradient id="paint7_linear_5983_3911" x1="4.09263" y1="2.53222" x2="12.321" y2="10.7606" gradientUnits="userSpaceOnUse">
<stop stop-color="#FF00AE"/>
<stop offset="1" stop-color="#6800FF"/>
</linearGradient>
<linearGradient id="paint8_linear_5983_3911" x1="0.342156" y1="6.28573" x2="8.56885" y2="14.5124" gradientUnits="userSpaceOnUse">
<stop stop-color="#FF00AE"/>
<stop offset="1" stop-color="#6800FF"/>
</linearGradient>
<linearGradient id="paint9_linear_5983_3911" x1="-1.81912" y1="8.4489" x2="6.40758" y2="16.6756" gradientUnits="userSpaceOnUse">
<stop stop-color="#FF00AE"/>
<stop offset="1" stop-color="#6800FF"/>
</linearGradient>
</defs>
</svg>
