<svg width="18" height="18" viewBox="0 0 18 18" fill="none" xmlns="http://www.w3.org/2000/svg">
<path d="M10.7401 14.3028C10.7401 14.7603 10.44 15.3603 10.0575 15.5928L9.00005 16.2753C8.01755 16.8828 6.65254 16.2003 6.65254 14.9853V10.9728C6.65254 10.4403 6.35254 9.75781 6.04504 9.38281L3.16502 6.35281C2.78252 5.97031 2.48254 5.29531 2.48254 4.83781V3.09781C2.48254 2.19031 3.16506 1.50781 3.99756 1.50781H14.0025C14.835 1.50781 15.5175 2.1903 15.5175 3.0228V4.6878C15.5175 5.2953 15.135 6.05281 14.76 6.42781" stroke-opacity="0.74" stroke-width="1.5" stroke-miterlimit="10" stroke-linecap="round" stroke-linejoin="round"/>
<path d="M12.0525 12.3898C13.378 12.3898 14.4525 11.3153 14.4525 9.98985C14.4525 8.66437 13.378 7.58984 12.0525 7.58984C10.727 7.58984 9.65247 8.66437 9.65247 9.98985C9.65247 11.3153 10.727 12.3898 12.0525 12.3898Z" stroke-opacity="0.74" stroke-width="1.5" stroke-linecap="round" stroke-linejoin="round"/>
<path d="M14.9025 12.8398L14.1525 12.0898" stroke-opacity="0.74" stroke-width="1.5" stroke-linecap="round" stroke-linejoin="round"/>
</svg>
