<svg width="20" height="20" viewBox="0 0 20 20" fill="none" xmlns="http://www.w3.org/2000/svg">
<path d="M17.5 10.8333V6.66667C17.5 6.22464 17.3244 5.80072 17.0118 5.48816C16.6993 5.17559 16.2754 5 15.8333 5H4.16667C3.72464 5 3.30072 5.17559 2.98816 5.48816C2.67559 5.80072 2.5 6.22464 2.5 6.66667V11.6667C2.5 12.1087 2.67559 12.5326 2.98816 12.8452C3.30072 13.1577 3.72464 13.3333 4.16667 13.3333H10M12.0833 15.4167L13.75 17.0833L17.0833 13.75M10 9.175L10.0083 9.16583M13.3333 9.175L13.3417 9.16583M6.66667 9.175L6.675 9.16583" stroke="#4F4B5C" stroke-width="1.5" stroke-linecap="round" stroke-linejoin="round"/>
</svg>
