<svg width="20" height="20" viewBox="0 0 20 20" fill="none" xmlns="http://www.w3.org/2000/svg">
<path d="M9.99589 13.8974V11.7832" stroke="#4F4B5C" stroke-width="1.5" stroke-linecap="round" stroke-linejoin="round"/>
<path fill-rule="evenodd" clip-rule="evenodd" d="M15.1582 4.44189C16.5666 4.44189 17.6999 5.58356 17.6999 6.99189V9.85856C15.6499 11.0586 12.9416 11.7836 9.99157 11.7836C7.04157 11.7836 4.34157 11.0586 2.29156 9.85856V6.98356C2.29156 5.57523 3.43323 4.44189 4.84157 4.44189H15.1582Z" stroke="#4F4B5C" stroke-width="1.5" stroke-linecap="round" stroke-linejoin="round"/>
<path d="M12.9126 4.43817V4.13317C12.9126 3.1165 12.0876 2.2915 11.0709 2.2915H8.92089C7.90422 2.2915 7.07922 3.1165 7.07922 4.13317V4.43817" stroke="#4F4B5C" stroke-width="1.5" stroke-linecap="round" stroke-linejoin="round"/>
<path d="M2.31201 12.9023L2.46951 14.9932C2.57618 16.4023 3.75035 17.4915 5.16285 17.4915H14.8287C16.2412 17.4915 17.4153 16.4023 17.522 14.9932L17.6795 12.9023" stroke="#4F4B5C" stroke-width="1.5" stroke-linecap="round" stroke-linejoin="round"/>
</svg>
