<svg width="31" height="31" viewBox="0 0 31 31" fill="none" xmlns="http://www.w3.org/2000/svg">
<path d="M19.3399 21.49L18.3399 19.83C18.1299 19.46 17.9399 18.76 17.9399 18.35V15.82C17.9399 13.47 16.5599 11.44 14.5699 10.49C14.0499 9.57 13.0899 9 11.9899 9C10.8999 9 9.91994 9.59 9.39994 10.52C7.44994 11.49 6.09994 13.5 6.09994 15.82V18.35C6.09994 18.76 5.90994 19.46 5.69994 19.82L4.68994 21.49C4.28994 22.16 4.19994 22.9 4.44994 23.58C4.68994 24.25 5.25994 24.77 5.99994 25.02C7.93994 25.68 9.97994 26 12.0199 26C14.0599 26 16.0999 25.68 18.0399 25.03C18.7399 24.8 19.2799 24.27 19.5399 23.58C19.7999 22.89 19.7299 22.13 19.3399 21.49Z" fill="#4F4B5C"/>
<path d="M14.8301 27.01C14.4101 28.17 13.3001 29 12.0001 29C11.2101 29 10.4301 28.68 9.88005 28.11C9.56005 27.81 9.32005 27.41 9.18005 27C9.31005 27.02 9.44005 27.03 9.58005 27.05C9.81005 27.08 10.0501 27.11 10.2901 27.13C10.8601 27.18 11.4401 27.21 12.0201 27.21C12.5901 27.21 13.1601 27.18 13.7201 27.13C13.9301 27.11 14.1401 27.1 14.3401 27.07C14.5001 27.05 14.6601 27.03 14.8301 27.01Z" fill="#4F4B5C"/>
<circle cx="21" cy="10" r="9.5" fill="#015656" stroke="#F3F3F4"/>
<path d="M18.3123 14V12.944L20.7003 10.904C20.9003 10.736 21.1203 10.548 21.3603 10.34C21.6083 10.132 21.8443 9.908 22.0683 9.668C22.3003 9.428 22.4883 9.172 22.6323 8.9C22.7843 8.628 22.8603 8.344 22.8603 8.048C22.8603 7.592 22.7203 7.236 22.4403 6.98C22.1683 6.724 21.7963 6.596 21.3243 6.596C20.9243 6.596 20.5843 6.68 20.3043 6.848C20.0323 7.016 19.8523 7.252 19.7643 7.556H18.4683C18.5403 7.068 18.7203 6.668 19.0083 6.356C19.2963 6.044 19.6483 5.812 20.0643 5.66C20.4803 5.5 20.9163 5.42 21.3723 5.42C21.9003 5.42 22.3723 5.516 22.7883 5.708C23.2043 5.9 23.5323 6.184 23.7723 6.56C24.0123 6.928 24.1323 7.38 24.1323 7.916C24.1323 8.42 24.0363 8.868 23.8443 9.26C23.6523 9.652 23.3963 10.008 23.0763 10.328C22.7643 10.648 22.4243 10.96 22.0563 11.264L20.1723 12.836H24.1923V14H18.3123Z" fill="white"/>
</svg>
