<svg width="37" height="36" viewBox="0 0 37 36" fill="none" xmlns="http://www.w3.org/2000/svg">
<g clip-path="url(#clip0_5165_22994)">
<path d="M0.5 13.5H36.5V22.5H0.5V13.5Z" fill="#EC1C24"/>
<path d="M30.875 5.625H6.125C2.39731 5.625 0.5 8.39531 0.5 11.8125V13.5H36.5V11.8125C36.5 8.39531 34.6027 5.625 30.875 5.625Z" fill="#1B75BB"/>
<path d="M0.5 24.1875C0.5 27.6047 2.39731 30.375 6.125 30.375H30.875C34.6027 30.375 36.5 27.6047 36.5 24.1875V22.5H0.5V24.1875Z" fill="#29B473"/>
<path fill-rule="evenodd" clip-rule="evenodd" d="M20.3844 19.8168C19.6571 20.9474 18.1439 21.6635 16.5605 21.2023C15.0671 20.7652 14.0411 19.3179 14.1271 17.7569C14.2093 16.1887 15.386 14.8544 16.9171 14.5822C18.5388 14.2959 19.8399 15.1644 20.3979 16.0728C19.7369 15.4271 18.9708 15.1334 18.0731 15.2375C17.3705 15.3185 16.7821 15.6358 16.3231 16.1713C15.422 17.2192 15.4546 18.7925 16.3963 19.7825C16.9351 20.3506 17.5983 20.6465 18.3819 20.6538C19.1632 20.6594 19.8258 20.3636 20.3844 19.8168Z" fill="#E6E7E8"/>
<path d="M22.9044 18.3475L23.7594 17.9357L22.9044 17.5217L23.2194 16.629L22.3222 16.9423L21.9088 16.0879L21.4981 16.9423L20.6026 16.629L20.9131 17.5217L20.0615 17.9357L20.9131 18.3475L20.6026 19.243L21.4981 18.9308L21.9088 19.783L22.3222 18.9308L23.2194 19.243L22.9044 18.3475Z" fill="#E6E7E8"/>
</g>
<defs>
<clipPath id="clip0_5165_22994">
<rect width="36" height="36" fill="white" transform="translate(0.5)"/>
</clipPath>
</defs>
</svg>
