<svg width="37" height="36" viewBox="0 0 37 36" fill="none" xmlns="http://www.w3.org/2000/svg">
<g clip-path="url(#clip0_5165_23036)">
<path d="M35.945 7C35.252 5.809 33.977 5 32.5 5H18.5V7H35.945ZM0.5 25H36.5V27H0.5V25ZM18.5 17H36.5V19H18.5V17ZM18.5 13H36.5V15H18.5V13ZM0.5 21H36.5V23H0.5V21ZM4.5 31H32.5C33.977 31 35.252 30.191 35.945 29H1.055C1.748 30.191 3.023 31 4.5 31ZM18.5 9H36.5V11H18.5V9Z" fill="#B22334"/>
<path d="M0.568 27.679C0.584667 27.7723 0.604333 27.8647 0.627 27.956C0.653667 28.056 0.684333 28.1547 0.719 28.252C0.808 28.511 0.916 28.761 1.052 28.995L1.055 29H35.945L35.947 28.996C36.0825 28.7609 36.1938 28.5126 36.279 28.255C36.3439 28.067 36.3947 27.8745 36.431 27.679C36.472 27.459 36.5 27.233 36.5 27H0.5C0.5 27.233 0.528 27.458 0.568 27.679ZM0.5 23H36.5V25H0.5V23ZM0.5 19V21H36.5V19H18.5H0.5ZM18.5 15H36.5V17H18.5V15ZM18.5 11H36.5V13H18.5V11ZM0.628 8.044C0.653 7.942 0.688 7.845 0.72 7.747C0.685496 7.84477 0.654806 7.94384 0.628 8.044ZM18.5 9H36.5C36.5 8.767 36.472 8.541 36.431 8.32C36.396 8.1241 36.3448 7.93144 36.278 7.744C36.1926 7.48531 36.081 7.23601 35.945 7H18.5V9Z" fill="#EEEEEE"/>
<path d="M18.5 5H4.5C3.43913 5 2.42172 5.42143 1.67157 6.17157C0.921427 6.92172 0.5 7.93913 0.5 9L0.5 19H18.5V5Z" fill="#3C3B6E"/>
<path d="M2.50101 7.726L3.11901 8.175L2.88301 8.9L3.50001 8.452L4.11801 8.9L3.88201 8.175L4.50001 7.726H3.73601L3.50001 7L3.26501 7.726H2.50101ZM4.50101 9.726L5.11901 10.175L4.88301 10.9L5.50001 10.452L6.11801 10.9L5.88201 10.175L6.50001 9.726H5.73601L5.50001 9L5.26501 9.726H4.50101ZM8.50101 9.726L9.11901 10.175L8.88301 10.9L9.50001 10.452L10.118 10.9L9.88201 10.175L10.5 9.726H9.73601L9.50001 9L9.26501 9.726H8.50101ZM12.501 9.726L13.119 10.175L12.883 10.9L13.5 10.452L14.118 10.9L13.882 10.175L14.5 9.726H13.736L13.5 9L13.265 9.726H12.501ZM4.50101 13.726L5.11901 14.175L4.88301 14.9L5.50001 14.452L6.11801 14.9L5.88201 14.175L6.50001 13.726H5.73601L5.50001 13L5.26501 13.726H4.50101ZM8.50101 13.726L9.11901 14.175L8.88301 14.9L9.50001 14.452L10.118 14.9L9.88201 14.175L10.5 13.726H9.73601L9.50001 13L9.26501 13.726H8.50101ZM12.501 13.726L13.119 14.175L12.883 14.9L13.5 14.452L14.118 14.9L13.882 14.175L14.5 13.726H13.736L13.5 13L13.265 13.726H12.501ZM6.50101 7.726L7.11901 8.175L6.88301 8.9L7.50001 8.452L8.11801 8.9L7.88201 8.175L8.50001 7.726H7.73601L7.50001 7L7.26501 7.726H6.50101ZM10.501 7.726L11.119 8.175L10.883 8.9L11.5 8.452L12.118 8.9L11.882 8.175L12.5 7.726H11.736L11.5 7L11.265 7.726H10.501ZM14.501 7.726L15.119 8.175L14.883 8.9L15.5 8.452L16.118 8.9L15.882 8.175L16.5 7.726H15.736L15.5 7L15.265 7.726H14.501ZM2.50101 11.726L3.11901 12.175L2.88301 12.9L3.50001 12.452L4.11801 12.9L3.88201 12.175L4.50001 11.726H3.73601L3.50001 11L3.26501 11.726H2.50101ZM6.88301 12.9L7.50001 12.452L8.11801 12.9L7.88201 12.175L8.50001 11.726H7.73601L7.50001 11L7.26501 11.726H6.50101L7.11901 12.175L6.88301 12.9ZM10.501 11.726L11.119 12.175L10.883 12.9L11.5 12.452L12.118 12.9L11.882 12.175L12.5 11.726H11.736L11.5 11L11.265 11.726H10.501ZM14.501 11.726L15.119 12.175L14.883 12.9L15.5 12.452L16.118 12.9L15.882 12.175L16.5 11.726H15.736L15.5 11L15.265 11.726H14.501ZM2.50101 15.726L3.11901 16.175L2.88301 16.9L3.50001 16.452L4.11801 16.9L3.88201 16.175L4.50001 15.726H3.73601L3.50001 15L3.26501 15.726H2.50101ZM6.88301 16.9L7.50001 16.452L8.11801 16.9L7.88201 16.175L8.50001 15.726H7.73601L7.50001 15L7.26501 15.726H6.50101L7.11901 16.175L6.88301 16.9ZM10.501 15.726L11.119 16.175L10.883 16.9L11.5 16.452L12.118 16.9L11.882 16.175L12.5 15.726H11.736L11.5 15L11.265 15.726H10.501ZM14.501 15.726L15.119 16.175L14.883 16.9L15.5 16.452L16.118 16.9L15.882 16.175L16.5 15.726H15.736L15.5 15L15.265 15.726H14.501Z" fill="white"/>
</g>
<defs>
<clipPath id="clip0_5165_23036">
<rect width="36" height="36" fill="white" transform="translate(0.5)"/>
</clipPath>
</defs>
</svg>
