<svg width="97" height="40" viewBox="0 0 97 40" fill="none" xmlns="http://www.w3.org/2000/svg">
<path d="M2.81824 13.1392C2.81297 13.1413 2.72979 13.1505 2.63397 13.1597C2.26861 13.1946 1.96852 13.254 1.83059 13.3176C1.74425 13.3576 1.66318 13.4406 1.54841 13.6087C1.4368 13.7707 1.38099 13.8845 1.36941 13.9747C1.36414 14.0157 1.34835 14.068 1.33361 14.0987C1.2957 14.1705 1.242 14.3878 1.19673 14.6441C1.15566 14.886 1.13039 14.9998 1.01878 15.4457C0.766082 16.4595 0.696588 16.9218 0.617619 18.1058C0.602878 18.3282 0.582872 18.605 0.573396 18.7208C0.557602 18.9012 0.554443 19.0796 0.554443 19.9611C0.554443 20.8714 0.556549 21.0119 0.573396 21.1656C0.582872 21.2609 0.608143 21.5592 0.628148 21.8268C0.686059 22.5884 0.728176 22.9544 0.785034 23.185C0.798722 23.2414 0.823993 23.347 0.841892 23.4208C0.881904 23.5848 0.947185 23.9487 0.996673 24.2972C1.03879 24.5863 1.0609 24.6827 1.14514 24.9543C1.17672 25.0558 1.20199 25.146 1.20199 25.1542C1.20199 25.1768 1.24516 25.2916 1.32097 25.4669C1.40205 25.6555 1.43785 25.7621 1.45364 25.8605C1.46838 25.9538 1.50102 26.0471 1.57473 26.2008C1.64317 26.3464 1.69687 26.495 1.69687 26.5432C1.69687 26.6037 1.73056 26.7093 1.79374 26.8497C1.82848 26.9255 1.88955 27.0844 1.92957 27.2023C1.96958 27.3202 2.02854 27.4678 2.06013 27.5324C2.09172 27.596 2.14331 27.7118 2.1749 27.7897C2.25176 27.9814 2.28545 28.0521 2.34126 28.1362C2.36653 28.1751 2.40338 28.2469 2.42234 28.2951C2.44129 28.3432 2.47498 28.4119 2.49709 28.4488C2.56237 28.5585 2.58659 28.6118 2.63397 28.741C2.68136 28.8712 2.734 28.9808 2.80139 29.0885C2.8235 29.1233 2.88773 29.2402 2.94353 29.3468C2.99829 29.4534 3.06778 29.5723 3.09726 29.6123C3.22361 29.7835 3.29942 29.9034 3.40156 30.0971C3.46157 30.2109 3.52686 30.3216 3.54581 30.3432C3.56476 30.3657 3.61951 30.4518 3.66689 30.5359C3.72375 30.6363 3.76903 30.705 3.80167 30.7347C3.83326 30.7655 3.87432 30.826 3.91749 30.9059C3.98909 31.0371 3.99646 31.0474 4.33129 31.4902C4.59242 31.8347 4.69245 31.9607 4.87881 32.177C5.05044 32.3769 5.12415 32.4692 5.20627 32.5901C5.29893 32.7275 5.52426 32.9684 6.1339 33.5835C6.34343 33.7946 6.68985 34.1308 6.90359 34.3318C7.11839 34.5317 7.39531 34.793 7.51955 34.912C7.78279 35.1631 7.83859 35.2113 8.06918 35.3794C8.22817 35.4952 8.31662 35.566 8.60407 35.8099C8.66514 35.8612 8.73884 35.9145 8.76727 35.9288C8.8315 35.9606 8.87257 35.9924 9.00945 36.1103C9.17265 36.2528 9.26847 36.3163 9.44009 36.3983C9.61383 36.4814 9.70122 36.5347 9.95708 36.7151C10.0497 36.7797 10.1761 36.8617 10.2393 36.8965C10.3024 36.9314 10.4067 36.9959 10.4709 37.04C10.7057 37.1999 10.8858 37.3137 10.9974 37.3732C11.0595 37.406 11.1343 37.4511 11.1627 37.4716C11.2301 37.5208 11.288 37.5495 11.4543 37.6141C11.6133 37.6756 11.7523 37.7422 11.8344 37.7955C11.8945 37.8355 11.9334 37.8519 11.9861 37.8632C12.0019 37.8662 12.0535 37.896 12.1019 37.9277C12.1851 37.9831 12.2967 38.0385 12.4515 38.1C12.4915 38.1164 12.5641 38.1533 12.6147 38.184C12.7484 38.265 12.8547 38.3111 13.0379 38.3696C13.1285 38.3983 13.2317 38.4352 13.2664 38.4526C13.3012 38.47 13.4149 38.512 13.5181 38.5469C13.6213 38.5807 13.7455 38.6299 13.795 38.6556C13.9708 38.7478 14.0214 38.7704 14.1109 38.797C14.3415 38.8657 14.4425 38.8995 14.5542 38.9467C14.7363 39.0256 14.7984 39.0461 14.8764 39.0584C14.9153 39.0646 15.0385 39.0994 15.148 39.1353C15.3786 39.2111 15.5176 39.247 15.6892 39.2747C15.8177 39.2952 16.0619 39.3536 16.143 39.3813C16.3168 39.4418 16.5884 39.5033 16.8895 39.5504C17.0317 39.573 17.1454 39.5986 17.3118 39.6478C17.4592 39.6919 17.7372 39.7319 18.3384 39.7965C18.9396 39.8621 19.2334 39.8969 19.4492 39.9297C19.7051 39.9687 20.1147 39.9861 21.0286 39.9974C22.032 40.0097 22.5954 39.98 23.2766 39.8785C23.5472 39.8385 23.702 39.8211 24.0137 39.7965C24.4275 39.7637 24.678 39.7237 24.9413 39.6519C25.1276 39.6007 25.2529 39.5751 25.4983 39.5351C25.7647 39.492 25.9689 39.45 26.268 39.3772C26.3838 39.3485 26.5333 39.3157 26.6007 39.3055C26.7218 39.285 26.8155 39.2563 26.905 39.2122C26.9766 39.1763 27.1651 39.1127 27.3514 39.0625C27.5631 39.0051 27.76 38.9416 27.8621 38.8995C27.9684 38.8554 28.0369 38.837 28.1632 38.8185C28.2822 38.8011 28.3475 38.7765 28.4886 38.6955C28.5412 38.6648 28.6023 38.635 28.6255 38.6279C28.7297 38.5961 28.7697 38.5797 28.8855 38.5243C29.0382 38.4495 29.1551 38.4024 29.3257 38.346C29.5836 38.2599 29.8858 38.1205 30.5839 37.7668C30.7176 37.6991 30.8693 37.6274 30.9209 37.6069C31.0451 37.5587 31.1314 37.5116 31.2072 37.4501C31.2409 37.4224 31.2989 37.3865 31.3368 37.3701C31.3747 37.3537 31.5031 37.2799 31.621 37.2061C31.74 37.1323 31.9032 37.0339 31.9843 36.9877C32.0654 36.9406 32.1981 36.8606 32.2791 36.8084C32.4392 36.7069 32.4918 36.6751 32.6087 36.6095C32.6592 36.5808 32.694 36.5531 32.7077 36.5306C32.7203 36.509 32.7371 36.4957 32.7498 36.4957C32.8203 36.4957 33.0825 36.3173 33.2131 36.179C33.3489 36.0365 33.3615 35.852 33.2426 35.7371C33.1794 35.6746 33.1267 35.6582 32.9425 35.6449C32.655 35.6234 31.4052 35.6141 27.2883 35.6039C23.1271 35.5936 20.281 35.5793 20.1231 35.567C20.0799 35.5639 20.0041 35.5547 19.9546 35.5475C19.7451 35.5137 19.266 35.4594 18.7585 35.4091C18.4089 35.3753 18.2426 35.3486 17.9656 35.281C17.7687 35.2338 17.655 35.2103 17.4013 35.1682C17.2075 35.1354 17.0443 35.0995 16.9327 35.0647C16.8853 35.0503 16.8274 35.038 16.8032 35.036C16.779 35.035 16.7253 35.0196 16.6842 35.0022C16.5926 34.9632 16.5231 34.9437 16.401 34.9222C16.2767 34.8997 16.1441 34.8617 16.0809 34.831C16.0072 34.7941 15.8387 34.7387 15.5913 34.67C15.3291 34.5973 15.2312 34.5655 15.1533 34.5275C15.1217 34.5122 15.0217 34.4773 14.9322 34.4517C14.7479 34.3974 14.6426 34.3533 14.5615 34.2938C14.4941 34.2446 14.4404 34.218 14.3394 34.1831C14.2414 34.1483 14.1604 34.1062 14.0951 34.056C14.0624 34.0314 13.9908 33.9955 13.9087 33.9627C13.835 33.934 13.736 33.8879 13.6876 33.8602C13.5928 33.8059 13.3928 33.7075 13.297 33.6675C13.2201 33.6368 13.0601 33.5342 12.8726 33.3979C12.6642 33.2462 12.4936 33.1334 12.223 32.9674C11.9513 32.8003 11.7892 32.6875 11.6112 32.5409C11.3501 32.3257 11.2827 32.2775 10.851 32.0059C10.7541 31.9454 10.7068 31.9064 10.6267 31.8234C10.5709 31.765 10.3246 31.5251 10.0782 31.2914C9.54539 30.785 9.30005 30.5379 9.14527 30.3534C9.0821 30.2786 8.9389 30.1156 8.82518 29.9916C8.44297 29.5713 8.37664 29.4903 7.99758 28.9819C7.66802 28.5411 7.54904 28.374 7.46691 28.2387C7.43532 28.1874 7.35951 28.0726 7.29739 27.9824C7.23526 27.8922 7.15419 27.763 7.11628 27.6954C6.74881 27.0311 6.62246 26.8097 6.5656 26.7267C6.5119 26.6488 6.49084 26.6057 6.46136 26.5114C6.37923 26.2592 6.31079 26.0881 6.16654 25.7836C6.06862 25.5776 5.9886 25.3736 5.95596 25.2516C5.92332 25.1235 5.90015 25.063 5.82961 24.9123C5.76011 24.7637 5.72958 24.6755 5.67588 24.4633C5.63587 24.3024 5.60744 24.2173 5.54532 24.0727C5.50531 23.9795 5.46108 23.8031 5.41791 23.5653C5.37685 23.3357 5.34421 23.1861 5.30314 23.0518C5.2526 22.8816 5.21891 22.6766 5.15573 22.1589C5.13573 21.9888 5.1073 21.7807 5.09256 21.6976C5.04939 21.4373 5.02938 21.0088 5.0178 20.0534C5.01148 19.4753 5.02412 18.7126 5.04623 18.485C5.06202 18.3118 5.19259 17.8331 5.25366 17.7213C5.27998 17.6732 5.2884 17.668 5.37474 17.6322C5.50846 17.5758 5.73484 17.503 5.81381 17.4907C6.01492 17.4589 6.41819 17.4579 10.3572 17.4743C16.7106 17.501 18.073 17.5122 18.7648 17.5409C18.8954 17.5471 19.3071 17.5563 19.6809 17.5625C20.6864 17.5778 21.2929 17.5983 21.5551 17.625C21.7098 17.6414 21.792 17.6639 22.0005 17.748C22.1005 17.788 22.2279 17.8362 22.2858 17.8546C22.4237 17.8987 22.4743 17.9356 22.7249 18.1775C23.0165 18.4594 23.0955 18.565 23.3019 18.9463C23.5272 19.3615 23.6472 19.4927 23.8862 19.5829C24.1632 19.6874 24.5349 19.711 25.7647 19.7008C27.4072 19.6864 27.5452 19.6731 27.7242 19.505C27.8379 19.3984 27.8811 19.2877 27.9053 19.0447C27.9221 18.8807 27.9095 18.7813 27.8463 18.5435C27.82 18.4461 27.7705 18.2554 27.7357 18.1191C27.701 17.9827 27.6557 17.8259 27.6368 17.7705C27.4609 17.2795 26.9608 16.3549 26.6491 15.9439C26.2932 15.4744 25.6404 14.846 25.0876 14.439C24.9487 14.3376 24.7907 14.2381 24.6086 14.1387C24.5127 14.0864 24.3506 13.9952 24.2474 13.9367C24.0073 13.8014 23.9705 13.783 23.8589 13.7481C23.8083 13.7317 23.6915 13.6846 23.6009 13.6436C23.3745 13.54 23.2861 13.5093 23.1481 13.4837C23.0018 13.456 22.8775 13.4222 22.7575 13.375C22.5869 13.3073 22.4258 13.2776 22.0921 13.252C21.9794 13.2428 21.792 13.2274 21.6762 13.2161C21.4845 13.1987 21.315 13.1956 19.7546 13.1854C17.6098 13.172 13.1885 13.1577 7.63011 13.1444C3.1278 13.1341 2.83508 13.1331 2.81824 13.1392Z" fill="black"/>
<path d="M9.28846 19.9468C8.58405 19.956 7.98704 19.9806 7.8828 20.0032C7.68064 20.0483 7.54692 20.1815 7.49216 20.3917C7.45215 20.5465 7.469 20.9801 7.53007 21.3604C7.56166 21.5562 7.58061 21.7089 7.60904 22.0154C7.64378 22.3855 7.6659 22.5085 7.7196 22.6387C7.77119 22.7617 7.80278 22.8796 7.84595 23.1133C7.89122 23.3572 7.92386 23.4844 7.97124 23.5992C8.02178 23.7232 8.05548 23.8226 8.10813 24.0102C8.20499 24.3505 8.38189 24.8047 8.50929 25.0404C8.54298 25.1019 8.58826 25.2014 8.60932 25.2608C8.68829 25.4771 8.71882 25.5335 8.93257 25.8656C9.03154 26.0194 9.07155 26.0922 9.15473 26.2664C9.18632 26.332 9.25476 26.4499 9.30636 26.5278C9.359 26.6068 9.47377 26.7882 9.56222 26.9317C9.74753 27.2331 9.88231 27.4319 9.96759 27.5262C10.0371 27.6031 10.3393 27.9875 10.4719 28.1669C10.5214 28.2346 10.5909 28.3268 10.6246 28.3719C10.9194 28.7615 12.4894 30.2704 13.0653 30.7163C13.1148 30.7542 13.1938 30.8086 13.2411 30.8362C13.2875 30.8649 13.3759 30.9223 13.437 30.9654C13.7023 31.154 13.935 31.2862 14.5078 31.5763C14.8742 31.7619 14.9521 31.8019 15.2322 31.9526C15.3459 32.013 15.4007 32.0335 15.506 32.0571C15.5355 32.0633 15.6366 32.1043 15.7324 32.1494C15.9566 32.2529 16.0619 32.2949 16.1851 32.3288C16.3462 32.3728 16.4157 32.3954 16.5294 32.4425C16.8158 32.5604 17.3718 32.7162 17.7382 32.7798C17.9225 32.8126 18.1341 32.8618 18.331 32.9182C18.4963 32.9653 18.5247 32.9694 19.3176 33.0566C19.6535 33.0924 20.0799 33.1416 20.2652 33.1642C20.5137 33.196 20.6674 33.2093 20.8496 33.2155C21.335 33.2339 25.0013 33.2462 29.8732 33.2452C32.5918 33.2452 35.1178 33.2411 35.4853 33.236C36.2592 33.2267 36.2181 33.2319 36.4382 33.1181C36.5077 33.0822 36.6024 33.0391 36.6477 33.0217C36.7993 32.9653 36.8288 32.9407 37.0099 32.7183C37.0562 32.6619 37.1405 32.5625 37.1963 32.4979C37.2521 32.4333 37.3195 32.3452 37.3469 32.3031C37.4153 32.1945 37.4911 32.0981 37.5964 31.9854C37.8733 31.6871 38.1808 31.2391 38.5651 30.5759C38.7125 30.3196 38.7515 30.2622 38.8209 30.1976C38.8525 30.1679 38.8778 30.1341 38.8852 30.1095C38.8915 30.0869 38.9336 30.0172 38.9768 29.9536C39.0652 29.8265 39.1021 29.7599 39.1495 29.643C39.1905 29.5416 39.2442 29.4391 39.2969 29.3601C39.3432 29.2904 39.3474 29.2638 39.3221 29.2146C39.2748 29.1244 39.1274 28.9583 39.0789 28.9398C38.9663 28.8988 37.6027 28.8896 28.099 28.8681C25.5741 28.863 22.7133 28.8537 21.7425 28.8486L19.9757 28.8384L19.6366 28.7717C19.4492 28.7358 19.167 28.6856 19.0091 28.66C18.6679 28.6046 18.6616 28.6036 18.5332 28.5462C18.4784 28.5226 18.3784 28.4878 18.312 28.4693C18.0899 28.4099 17.9393 28.3566 17.7698 28.2746C17.6771 28.2305 17.4992 28.1464 17.3749 28.088C17.2507 28.0285 17.0422 27.925 16.9116 27.8573C16.0914 27.4299 16.1588 27.4699 15.7987 27.2054C15.6692 27.1111 15.487 26.9809 15.3933 26.9153C15.0543 26.6785 14.97 26.6057 14.3825 26.0389C13.9898 25.6586 13.9392 25.6052 13.756 25.3818C13.5191 25.0937 13.4159 24.9461 13.338 24.7883C13.2833 24.6745 13.2633 24.6447 13.1401 24.49C13.0179 24.3362 12.92 24.1363 12.8358 23.8667C12.8126 23.7909 12.7673 23.675 12.7368 23.6104C12.7063 23.5459 12.661 23.4372 12.6368 23.3695C12.6125 23.3019 12.5567 23.1656 12.5136 23.0671C12.4335 22.8847 12.382 22.7268 12.3683 22.6264C12.3556 22.528 12.3125 22.3742 12.2588 22.2389C12.1703 22.0164 12.1493 21.9221 12.0998 21.5449C12.0671 21.2897 12.0471 21.1892 12.005 21.0529C11.9934 21.0129 11.9576 20.8704 11.926 20.7341C11.8408 20.365 11.8176 20.3128 11.6712 20.1651C11.5238 20.0165 11.4175 19.9786 11.0974 19.9611C10.9089 19.9509 9.70436 19.9417 9.28846 19.9468Z" fill="black"/>
<path d="M38.5332 26.8608C38.5385 26.8587 38.6217 26.8495 38.7175 26.8403C39.0828 26.8054 39.3829 26.746 39.5209 26.6824C39.6072 26.6424 39.6883 26.5594 39.803 26.3913C39.9147 26.2293 39.9705 26.1155 39.982 26.0253C39.9873 25.9843 40.0031 25.932 40.0178 25.9013C40.0557 25.8295 40.1094 25.6122 40.1547 25.3559C40.1958 25.114 40.2211 25.0002 40.3327 24.5543C40.5854 23.5405 40.6549 23.0782 40.7338 21.8942C40.7486 21.6718 40.7686 21.395 40.7781 21.2792C40.7938 21.0988 40.797 20.9204 40.797 20.0388C40.797 19.1286 40.7949 18.9881 40.7781 18.8344C40.7686 18.739 40.7433 18.4407 40.7233 18.1732C40.6654 17.4116 40.6233 17.0456 40.5664 16.815C40.5527 16.7586 40.5275 16.653 40.5096 16.5792C40.4695 16.4152 40.4043 16.0513 40.3548 15.7028C40.3127 15.4137 40.2906 15.3173 40.2063 15.0457C40.1747 14.9442 40.1495 14.854 40.1495 14.8458C40.1495 14.8232 40.1063 14.7084 40.0305 14.5331C39.9494 14.3445 39.9136 14.2379 39.8978 14.1395C39.8831 14.0462 39.8504 13.9529 39.7767 13.7992C39.7083 13.6536 39.6546 13.505 39.6546 13.4568C39.6546 13.3963 39.6209 13.2907 39.5577 13.1503C39.523 13.0744 39.4619 12.9156 39.4219 12.7977C39.3819 12.6798 39.3229 12.5322 39.2913 12.4676C39.2597 12.404 39.2081 12.2882 39.1766 12.2103C39.0997 12.0186 39.066 11.9479 39.0102 11.8638C38.9849 11.8249 38.9481 11.7531 38.9291 11.7049C38.9102 11.6568 38.8765 11.5881 38.8544 11.5512C38.7891 11.4415 38.7649 11.3882 38.7175 11.259C38.6701 11.1288 38.6175 11.0192 38.5501 10.9115C38.528 10.8767 38.4637 10.7598 38.4079 10.6532C38.3532 10.5466 38.2837 10.4277 38.2542 10.3877C38.1278 10.2165 38.052 10.0966 37.9499 9.90285C37.8899 9.78906 37.8246 9.67835 37.8056 9.65683C37.7867 9.63428 37.7319 9.54817 37.6846 9.46411C37.6277 9.36365 37.5824 9.29497 37.5498 9.26525C37.5182 9.23449 37.4771 9.17401 37.434 9.09406C37.3624 8.96285 37.355 8.9526 37.0202 8.50976C36.759 8.16533 36.659 8.03925 36.4726 7.82296C36.301 7.62307 36.2273 7.53081 36.1452 7.40985C36.0525 7.27249 35.8272 7.03159 35.2175 6.41655C35.008 6.20538 34.6616 5.86915 34.4479 5.66824C34.2331 5.46835 33.9561 5.20695 33.8319 5.08804C33.5687 4.8369 33.5129 4.78872 33.2823 4.6206C33.1233 4.50477 33.0348 4.43404 32.7474 4.19007C32.6863 4.13882 32.6126 4.08551 32.5842 4.07116C32.5199 4.03938 32.4789 4.0076 32.342 3.88972C32.1788 3.74723 32.083 3.68368 31.9114 3.60167C31.7376 3.51864 31.6502 3.46534 31.3944 3.28492C31.3017 3.22034 31.1754 3.13834 31.1122 3.10348C31.049 3.06863 30.9448 3.00405 30.8805 2.95997C30.6457 2.80006 30.4657 2.68628 30.3541 2.62682C30.292 2.59402 30.2172 2.54891 30.1888 2.52841C30.1214 2.47921 30.0635 2.45051 29.8971 2.38593C29.7381 2.32442 29.5991 2.25779 29.517 2.20449C29.457 2.16451 29.418 2.14811 29.3654 2.13683C29.3496 2.13376 29.298 2.10403 29.2496 2.07225C29.1664 2.0169 29.0548 1.96154 28.9 1.90004C28.86 1.88364 28.7873 1.84673 28.7368 1.81598C28.6031 1.735 28.4967 1.68887 28.3135 1.63044C28.223 1.60174 28.1198 1.56484 28.085 1.54741C28.0503 1.52998 27.9366 1.48796 27.8334 1.4531C27.7302 1.41928 27.6059 1.37007 27.5565 1.34444C27.3806 1.25219 27.3301 1.22964 27.2406 1.20298C27.01 1.1343 26.9089 1.10048 26.7973 1.05332C26.6151 0.97439 26.553 0.953888 26.4751 0.941587C26.4361 0.935437 26.3129 0.900584 26.2034 0.864706C25.9728 0.78885 25.8339 0.752973 25.6622 0.725295C25.5338 0.704794 25.2895 0.646364 25.2084 0.618687C25.0347 0.558207 24.763 0.496702 24.4619 0.449549C24.3198 0.426997 24.206 0.40137 24.0397 0.352166C23.8923 0.308087 23.6143 0.268109 23.0131 0.203529C22.4119 0.137924 22.1181 0.103071 21.9022 0.0702688C21.6464 0.0313157 21.2368 0.0138894 20.3228 0.00261358C19.3194 -0.00968731 18.7561 0.0200401 18.0748 0.121523C17.8042 0.161501 17.6495 0.178928 17.3378 0.20353C16.924 0.236332 16.6734 0.276311 16.4102 0.348066C16.2238 0.39932 16.0985 0.424947 15.8532 0.464926C15.5868 0.507979 15.3825 0.550007 15.0835 0.622788C14.9677 0.65149 14.8181 0.684293 14.7508 0.694544C14.6297 0.715046 14.536 0.743748 14.4465 0.787826C14.3749 0.823704 14.1864 0.887259 14 0.937488C13.7884 0.994893 13.5915 1.05845 13.4893 1.10048C13.383 1.14455 13.3146 1.16301 13.1882 1.18146C13.0692 1.19888 13.0039 1.22349 12.8629 1.30447C12.8102 1.33522 12.7491 1.36495 12.726 1.37212C12.6217 1.4039 12.5817 1.4203 12.4659 1.47566C12.3132 1.55049 12.1964 1.59764 12.0258 1.65402C11.7678 1.74013 11.4656 1.87954 10.7675 2.23319C10.6338 2.30085 10.4822 2.3726 10.4306 2.3931C10.3064 2.44128 10.22 2.48844 10.1442 2.54994C10.1105 2.57762 10.0526 2.6135 10.0147 2.6299C9.97679 2.6463 9.84833 2.7201 9.7304 2.79391C9.61142 2.86772 9.44822 2.96612 9.36714 3.01225C9.28607 3.05941 9.1534 3.13936 9.07232 3.19164C8.91228 3.29313 8.85963 3.3249 8.74276 3.39051C8.69221 3.41921 8.65747 3.44689 8.64378 3.46944C8.63115 3.49097 8.6143 3.50429 8.60166 3.50429C8.53112 3.50429 8.26894 3.68266 8.13838 3.82104C8.00255 3.96353 7.98991 4.14804 8.10889 4.26285C8.17207 4.32538 8.22472 4.34178 8.40898 4.35511C8.69643 4.37664 9.94625 4.38586 14.0632 4.39611C18.2244 4.40636 21.0704 4.42071 21.2284 4.43301C21.2715 4.43609 21.3473 4.44532 21.3968 4.45249C21.6064 4.48632 22.0854 4.54065 22.593 4.59088C22.9425 4.6247 23.1089 4.65136 23.3858 4.71901C23.5827 4.76617 23.6964 4.78974 23.9502 4.83177C24.1439 4.86457 24.3071 4.90045 24.4187 4.9353C24.4661 4.94966 24.524 4.96196 24.5482 4.96401C24.5725 4.96503 24.6262 4.98041 24.6672 4.99783C24.7588 5.03679 24.8283 5.05626 24.9505 5.07779C25.0747 5.10034 25.2074 5.13827 25.2705 5.16902C25.3443 5.20593 25.5127 5.26128 25.7602 5.32996C26.0223 5.40274 26.1203 5.43452 26.1982 5.47245C26.2298 5.48782 26.3298 5.52268 26.4193 5.5483C26.6036 5.60263 26.7088 5.64671 26.7899 5.70617C26.8573 5.75537 26.911 5.78202 27.0121 5.81687C27.11 5.85173 27.1911 5.89376 27.2564 5.94398C27.289 5.96859 27.3606 6.00446 27.4427 6.03727C27.5164 6.06597 27.6154 6.1121 27.6639 6.13977C27.7586 6.1941 27.9587 6.29251 28.0545 6.33249C28.1313 6.36324 28.2914 6.46575 28.4788 6.60209C28.6873 6.7538 28.8579 6.86656 29.1285 7.03262C29.4001 7.19971 29.5623 7.31247 29.7402 7.45905C30.0013 7.67432 30.0687 7.7225 30.5004 7.99415C30.5973 8.05463 30.6447 8.09358 30.7247 8.17661C30.7805 8.23504 31.0269 8.47491 31.2733 8.70863C31.8061 9.21502 32.0514 9.46206 32.2062 9.64658C32.2694 9.72141 32.4125 9.8844 32.5263 10.0084C32.9085 10.4287 32.9748 10.5097 33.3539 11.0181C33.6834 11.4589 33.8024 11.626 33.8845 11.7613C33.9161 11.8126 33.9919 11.9274 34.0541 12.0176C34.1162 12.1078 34.1973 12.237 34.2352 12.3046C34.6026 12.9689 34.729 13.1903 34.7858 13.2733C34.8395 13.3512 34.8606 13.3943 34.8901 13.4886C34.9722 13.7408 35.0407 13.9119 35.1849 14.2164C35.2828 14.4224 35.3629 14.6264 35.3955 14.7484C35.4281 14.8765 35.4513 14.937 35.5218 15.0877C35.5913 15.2363 35.6219 15.3245 35.6756 15.5367C35.7156 15.6976 35.744 15.7827 35.8061 15.9272C35.8461 16.0205 35.8904 16.1968 35.9335 16.4347C35.9746 16.6643 36.0072 16.8139 36.0483 16.9482C36.0988 17.1184 36.1325 17.3234 36.1957 17.8411C36.2157 18.0112 36.2442 18.2193 36.2589 18.3024C36.3021 18.5627 36.3221 18.9912 36.3337 19.9466C36.34 20.5247 36.3273 21.2874 36.3052 21.515C36.2894 21.6882 36.1589 22.1669 36.0978 22.2787C36.0715 22.3268 36.063 22.332 35.9767 22.3678C35.843 22.4242 35.6166 22.497 35.5376 22.5093C35.3365 22.5411 34.9333 22.5421 30.9943 22.5257C24.6409 22.499 23.2784 22.4878 22.5866 22.4591C22.4561 22.4529 22.0444 22.4437 21.6706 22.4375C20.665 22.4222 20.0586 22.4017 19.7964 22.375C19.6416 22.3586 19.5595 22.3361 19.351 22.252C19.251 22.212 19.1236 22.1638 19.0657 22.1454C18.9277 22.1013 18.8772 22.0644 18.6266 21.8225C18.3349 21.5406 18.2559 21.435 18.0496 21.0537C17.8242 20.6385 17.7042 20.5073 17.4652 20.4171C17.1883 20.3125 16.8166 20.289 15.5868 20.2992C13.9442 20.3136 13.8063 20.3269 13.6273 20.495C13.5136 20.6016 13.4704 20.7123 13.4462 20.9553C13.4293 21.1193 13.442 21.2187 13.5051 21.4565C13.5315 21.5539 13.581 21.7446 13.6157 21.8809C13.6504 22.0173 13.6957 22.1741 13.7147 22.2294C13.8905 22.7205 14.3907 23.6451 14.7023 24.0561C15.0582 24.5256 15.711 25.154 16.2638 25.561C16.4028 25.6624 16.5607 25.7619 16.7429 25.8613C16.8387 25.9136 17.0009 26.0048 17.104 26.0633C17.3441 26.1986 17.381 26.217 17.4926 26.2519C17.5431 26.2683 17.66 26.3154 17.7505 26.3564C17.9769 26.46 18.0654 26.4907 18.2033 26.5163C18.3497 26.544 18.4739 26.5778 18.5939 26.625C18.7645 26.6927 18.9256 26.7224 19.2594 26.748C19.3721 26.7572 19.5595 26.7726 19.6753 26.7839C19.8669 26.8013 20.0365 26.8044 21.5969 26.8146C23.7417 26.828 28.1629 26.8423 33.7213 26.8556C38.2237 26.8659 38.5164 26.8669 38.5332 26.8608Z" fill="#015656"/>
<path d="M32.063 20.0532C32.7674 20.044 33.3644 20.0194 33.4686 19.9968C33.6708 19.9517 33.8045 19.8185 33.8593 19.6083C33.8993 19.4535 33.8824 19.0199 33.8214 18.6396C33.7898 18.4438 33.7708 18.2911 33.7424 17.9846C33.7077 17.6145 33.6856 17.4915 33.6319 17.3613C33.5803 17.2383 33.5487 17.1204 33.5055 16.8867C33.4602 16.6428 33.4276 16.5156 33.3802 16.4008C33.3297 16.2768 33.296 16.1774 33.2433 15.9898C33.1465 15.6494 32.9696 15.1953 32.8422 14.9596C32.8085 14.8981 32.7632 14.7986 32.7421 14.7392C32.6632 14.5229 32.6326 14.4665 32.4189 14.1344C32.3199 13.9806 32.2799 13.9078 32.1967 13.7336C32.1651 13.668 32.0967 13.5501 32.0451 13.4722C31.9924 13.3932 31.8777 13.2118 31.7892 13.0683C31.6039 12.7669 31.4691 12.5681 31.3839 12.4737C31.3144 12.3969 31.0122 12.0125 30.8795 11.8331C30.83 11.7654 30.7605 11.6732 30.7268 11.6281C30.432 11.2385 28.8621 9.7296 28.2861 9.28369C28.2367 9.24577 28.1577 9.19144 28.1103 9.16376C28.064 9.13506 27.9755 9.07765 27.9145 9.0346C27.6491 8.84598 27.4164 8.71375 26.8436 8.42365C26.4772 8.23811 26.3993 8.19813 26.1192 8.04745C26.0055 7.98697 25.9508 7.96646 25.8455 7.94289C25.816 7.93674 25.7149 7.89573 25.6191 7.85063C25.3948 7.7471 25.2895 7.70507 25.1663 7.67124C25.0052 7.62716 24.9357 7.60461 24.822 7.55746C24.5356 7.43957 23.9797 7.28376 23.6133 7.22021C23.429 7.1874 23.2174 7.1382 23.0205 7.08182C22.8551 7.03467 22.8267 7.03057 22.0339 6.94343C21.698 6.90756 21.2715 6.85835 21.0862 6.8358C20.8377 6.80402 20.684 6.7907 20.5019 6.78455C20.0165 6.76609 16.3502 6.75379 11.4783 6.75482C8.75961 6.75482 6.23364 6.75892 5.86617 6.76405C5.09227 6.77327 5.13333 6.76815 4.91327 6.88193C4.84378 6.91781 4.74901 6.96086 4.70374 6.97829C4.55212 7.03467 4.52264 7.05927 4.34153 7.28171C4.2952 7.33809 4.21097 7.43752 4.15516 7.5021C4.09936 7.56668 4.03197 7.65484 4.0046 7.69687C3.93616 7.80553 3.86034 7.90189 3.75505 8.01464C3.47813 8.31294 3.17068 8.7609 2.78636 9.42413C2.63895 9.6804 2.59999 9.73781 2.5305 9.80239C2.49891 9.83211 2.47364 9.86594 2.46627 9.89054C2.45995 9.9131 2.41783 9.9828 2.37466 10.0464C2.28622 10.1735 2.24937 10.2401 2.20199 10.357C2.16092 10.4584 2.10722 10.5609 2.05458 10.6399C2.00825 10.7096 2.00403 10.7362 2.02931 10.7854C2.07669 10.8756 2.2241 11.0417 2.27253 11.0602C2.38519 11.1012 3.74873 11.1104 13.2525 11.1319C15.7774 11.137 18.6382 11.1463 19.609 11.1514L21.3758 11.1616L21.7148 11.2283C21.9022 11.2642 22.1844 11.3144 22.3424 11.34C22.6835 11.3954 22.6898 11.3964 22.8183 11.4538C22.873 11.4774 22.9731 11.5122 23.0394 11.5307C23.2616 11.5901 23.4121 11.6434 23.5817 11.7254C23.6743 11.7695 23.8523 11.8536 23.9765 11.912C24.1008 11.9715 24.3092 12.075 24.4398 12.1426C25.26 12.5701 25.1926 12.5301 25.5527 12.7946C25.6823 12.8889 25.8644 13.0191 25.9581 13.0847C26.2972 13.3215 26.3814 13.3943 26.9689 13.9611C27.3617 14.3414 27.4122 14.3948 27.5954 14.6182C27.8323 14.9063 27.9355 15.0539 28.0134 15.2117C28.0682 15.3255 28.0882 15.3553 28.2114 15.51C28.3335 15.6638 28.4314 15.8637 28.5157 16.1333C28.5388 16.2091 28.5841 16.325 28.6147 16.3896C28.6452 16.4541 28.6905 16.5628 28.7147 16.6305C28.7389 16.6981 28.7947 16.8344 28.8379 16.9329C28.9179 17.1153 28.9695 17.2732 28.9832 17.3736C28.9958 17.472 29.039 17.6258 29.0927 17.7611C29.1811 17.9836 29.2022 18.0779 29.2517 18.4551C29.2843 18.7103 29.3043 18.8108 29.3464 18.9471C29.358 18.9871 29.3938 19.1296 29.4254 19.2659C29.5107 19.635 29.5339 19.6872 29.6802 19.8349C29.8276 19.9835 29.934 20.0214 30.2541 20.0388C30.4425 20.0491 31.6471 20.0583 32.063 20.0532Z" fill="#015656"/>
<path d="M80.668 12.8149C80.856 12.8239 81.0529 12.8373 81.2588 12.8552C81.4647 12.8642 81.684 12.8821 81.9167 12.9089C82.3554 12.9626 83.0044 13.0566 83.8638 13.1909L83.9712 13.1775C85.3229 12.9806 86.3389 12.8597 87.0193 12.8149V13.2178C86.5627 13.2625 86.236 13.361 86.0391 13.5132C85.8511 13.6654 85.7571 13.8981 85.7571 14.2114C85.7571 14.471 85.9048 14.9947 86.2002 15.7825C86.3524 16.1853 86.603 16.8075 86.9521 17.6489C87.3102 18.4814 87.7712 19.5467 88.3352 20.8447L89.5168 23.5303L91.5579 18.5083C91.8891 17.6758 92.1442 16.9194 92.3232 16.239C92.5112 15.5587 92.6052 15.0037 92.6052 14.574C92.6052 14.1085 92.4754 13.7728 92.2158 13.5669C91.9652 13.361 91.5534 13.2446 90.9805 13.2178V12.8149C91.4191 12.8239 91.8801 12.8597 92.3635 12.9224C92.8469 12.985 93.3348 13.0745 93.8271 13.1909C94.2389 13.1104 94.6552 13.0387 95.0759 12.9761C95.4967 12.9134 95.9532 12.8597 96.4456 12.8149V13.2178H96.3918C95.2371 13.2178 93.6347 15.6392 91.5847 20.4822C91.3609 21.0103 91.1595 21.4803 90.9805 21.8921C90.8104 22.2949 90.6627 22.6396 90.5374 22.926L90.0271 24.1077C87.2162 30.6335 84.9738 33.8965 83.2998 33.8965C82.888 33.8965 82.5568 33.7846 82.3062 33.5608C82.0555 33.337 81.9302 33.0371 81.9302 32.6611C81.9302 32.5179 81.957 32.3612 82.0107 32.1912C82.0645 32.03 82.1584 31.8376 82.2927 31.6138C82.7314 31.8376 83.1431 31.9495 83.5281 31.9495C83.913 31.9495 84.28 31.8734 84.6292 31.7212C84.9783 31.578 85.3184 31.3452 85.6497 31.0229C85.9809 30.7096 86.3031 30.3023 86.6165 29.801C86.9298 29.3087 87.2476 28.7134 87.5698 28.0151L88.3352 26.3367C88.0667 25.6653 87.7936 25.0073 87.5161 24.3628C87.2476 23.7093 86.979 23.0872 86.7104 22.4963L84.6023 17.6758C83.8235 15.8944 83.1655 14.7262 82.6284 14.1711C82.1003 13.6072 81.4468 13.2894 80.668 13.2178V12.8149Z" fill="black"/>
<path d="M79.446 14.3323C79.5087 14.6903 79.5535 15.0126 79.5803 15.2991C79.6161 15.5766 79.6385 15.8093 79.6475 15.9973V16.051C79.6564 16.0958 79.6609 16.145 79.6609 16.1987C79.6698 16.2524 79.6743 16.3062 79.6743 16.3599H79.1775C78.9985 15.3125 78.6583 14.5113 78.157 13.9563C77.6557 13.3923 77.0246 13.1104 76.2637 13.1104C75.9056 13.1104 75.5789 13.1641 75.2834 13.2715C74.997 13.37 74.7463 13.5132 74.5315 13.7012C74.3256 13.8892 74.1645 14.1174 74.0481 14.386C73.9407 14.6456 73.887 14.9365 73.887 15.2588C73.887 15.8138 74.0615 16.2838 74.4106 16.6687C74.7419 17.0447 75.467 17.5102 76.5859 18.0652C78.0719 18.7903 79.0253 19.4214 79.446 19.9585C79.8668 20.5046 80.0771 21.2028 80.0771 22.0532C80.0771 23.1543 79.6072 24.0719 78.6672 24.8059C77.7273 25.531 76.5322 25.8936 75.082 25.8936C74.1152 25.8936 73.3051 25.7593 72.6516 25.4907C71.9981 25.2222 71.6714 24.8999 71.6714 24.5239C71.6714 24.4613 71.6803 24.3941 71.6982 24.3225C71.7251 24.2509 71.7788 24.1345 71.8594 23.9734C71.752 23.4631 71.6714 23.0111 71.6177 22.6172C71.5729 22.2144 71.5505 21.8429 71.5505 21.5027H72.0474C72.1279 22.0846 72.2667 22.6082 72.4636 23.0737C72.6606 23.5303 72.9067 23.9197 73.2021 24.2419C73.5065 24.5642 73.8556 24.8104 74.2495 24.9805C74.6434 25.1506 75.0731 25.2356 75.5386 25.2356C76.2995 25.2356 76.9172 25.0208 77.3916 24.5911C77.866 24.1435 78.1033 23.5706 78.1033 22.8723C78.1033 22.2367 77.9242 21.7131 77.5662 21.3013C77.2081 20.8716 76.4696 20.3971 75.3506 19.8779C73.981 19.2155 73.0589 18.6157 72.5845 18.0786C72.119 17.5326 71.8862 16.8656 71.8862 16.0779C71.8862 14.9947 72.2935 14.1264 73.1082 13.4729C73.9317 12.8105 75.0283 12.4792 76.3979 12.4792C77.311 12.4792 78.0854 12.6001 78.7209 12.8418C79.3565 13.0835 79.6743 13.3655 79.6743 13.6877C79.6743 13.8847 79.5982 14.0995 79.446 14.3323Z" fill="black"/>
<path d="M65.2932 19.0857C65.0426 19.1752 64.7472 19.2692 64.407 19.3677C64.0668 19.4661 63.6729 19.578 63.2253 19.7034C60.9695 20.3121 59.8416 21.252 59.8416 22.5232C59.8416 23.2304 60.043 23.7944 60.4458 24.2151C60.8576 24.6269 61.4171 24.8328 62.1243 24.8328C62.6077 24.8328 63.0463 24.7522 63.4402 24.5911C63.8341 24.421 64.1653 24.1793 64.4338 23.866C64.7113 23.5437 64.9217 23.1588 65.0649 22.7112C65.2171 22.2546 65.2932 21.7399 65.2932 21.167V19.0857ZM67.4819 17.7563V20.8179C67.4819 22.277 67.5849 23.2483 67.7908 23.7317C67.9877 24.1882 68.3547 24.4165 68.8918 24.4165C69.2052 24.4165 69.4961 24.3136 69.7646 24.1077L70.0198 24.4702C69.5006 24.9536 69.0172 25.3027 68.5696 25.5176C68.122 25.7324 67.6699 25.8398 67.2134 25.8398C66.6673 25.8398 66.2376 25.6384 65.9243 25.2356C65.62 24.8238 65.4499 24.224 65.4141 23.4363C64.9217 24.2419 64.2861 24.8551 63.5073 25.2759C62.7375 25.6877 61.8647 25.8936 60.8889 25.8936C59.8326 25.8936 59.0135 25.6474 58.4316 25.155C57.8498 24.6537 57.5588 23.9465 57.5588 23.0334C57.5588 21.4042 59.1165 20.1644 62.2317 19.314C62.4644 19.2513 62.6659 19.1976 62.8359 19.1528C63.006 19.0991 63.1537 19.0544 63.2791 19.0186C64.1742 18.7679 64.7337 18.5173 64.9575 18.2666C65.1813 18.016 65.2932 17.5639 65.2932 16.9104C65.2932 15.5587 65.1052 14.6008 64.7292 14.0369C64.3622 13.4729 63.749 13.1909 62.8896 13.1909C62.2451 13.1909 61.7259 13.3789 61.332 13.7549C60.9471 14.1219 60.7546 14.6143 60.7546 15.2319C60.7546 15.6885 60.8442 16.1361 61.0232 16.5747C60.8173 16.6732 60.6248 16.7448 60.4458 16.7896C60.2757 16.8343 60.1101 16.8567 59.949 16.8567C59.564 16.8567 59.2507 16.7448 59.009 16.521C58.7763 16.2882 58.6599 15.9973 58.6599 15.6482C58.6599 14.7709 59.0896 14.0413 59.949 13.4595C60.8263 12.8776 61.9273 12.5867 63.2522 12.5867C64.7203 12.5867 65.79 12.9985 66.4614 13.822C67.1418 14.6456 67.4819 15.957 67.4819 17.7563Z" fill="black"/>
<path d="M55.1284 17.5415L47.2866 17.6489C47.1523 17.6489 47.0404 17.6668 46.9509 17.7026C46.8614 17.7384 46.7853 17.8101 46.7227 17.9175C46.6689 18.016 46.6287 18.1547 46.6018 18.3337C46.5839 18.5038 46.575 18.7231 46.575 18.9917C46.575 20.6836 47.0404 22.0756 47.9714 23.1677C48.9114 24.2598 50.1154 24.8059 51.5835 24.8059C52.8994 24.8059 54.1079 24.2822 55.209 23.2349L55.4641 23.678C54.9001 24.4031 54.1706 24.967 53.2754 25.3699C52.3802 25.7638 51.3821 25.9607 50.281 25.9607C48.3653 25.9607 46.8659 25.3967 45.7827 24.2688C44.6995 23.1498 44.158 21.5922 44.158 19.5959C44.158 17.5639 44.7354 15.8765 45.8901 14.5337C47.0539 13.182 48.4906 12.5061 50.2004 12.5061C51.5611 12.5061 52.7293 12.9403 53.7051 13.8086C54.6898 14.6859 55.1821 15.7109 55.1821 16.8835C55.1821 16.9999 55.1687 17.179 55.1418 17.4207C55.1329 17.4565 55.1284 17.4967 55.1284 17.5415ZM52.0535 16.8567C52.3399 16.8567 52.5279 16.8298 52.6174 16.7761C52.7159 16.7224 52.7651 16.6195 52.7651 16.4673C52.7651 15.5811 52.4697 14.8157 51.8789 14.1711C51.306 13.5177 50.6033 13.1909 49.7708 13.1909C48.8487 13.1909 48.0968 13.5356 47.5149 14.2249C46.933 14.9141 46.6376 15.8138 46.6287 16.9238L52.0535 16.8567Z" fill="black"/>
<path d="M76.5286 31.6815L76.6415 31.712C76.6211 31.8239 76.5794 31.9379 76.5164 32.0538C76.553 32.302 76.5713 32.5065 76.5713 32.6672H76.4279C76.3912 32.3844 76.2834 32.1678 76.1044 32.0172C75.9253 31.8646 75.6893 31.7883 75.3964 31.7883C75.142 31.7883 74.9335 31.8636 74.7708 32.0142C74.608 32.1647 74.5266 32.356 74.5266 32.5879C74.5266 32.8076 74.5988 32.9958 74.7433 33.1525C74.8898 33.3091 75.1868 33.4892 75.6344 33.6926C76.1206 33.9164 76.4462 34.1239 76.611 34.3152C76.7758 34.5044 76.8582 34.7394 76.8582 35.0201C76.8582 35.4108 76.7137 35.7251 76.4248 35.9631C76.1379 36.2012 75.7555 36.3202 75.2773 36.3202C75.0535 36.3202 74.8165 36.2795 74.5663 36.1981C74.316 36.1167 74.1736 36.076 74.139 36.076C74.1004 36.076 74.0668 36.0862 74.0383 36.1066C74.0119 36.1249 73.9936 36.1493 73.9834 36.1798L73.8644 36.1554C73.8807 36.0842 73.901 36.016 73.9254 35.9509C73.9498 35.8838 73.9793 35.8187 74.0139 35.7556C73.9936 35.6315 73.9783 35.5176 73.9681 35.4138C73.958 35.3101 73.9529 35.2114 73.9529 35.1178H74.0841C74.1126 35.2826 74.1614 35.4301 74.2306 35.5603C74.3018 35.6885 74.3903 35.7973 74.4961 35.8868C74.6019 35.9764 74.725 36.0445 74.8654 36.0913C75.0057 36.1381 75.1604 36.1615 75.3292 36.1615C75.6181 36.1615 75.8562 36.0822 76.0433 35.9235C76.2285 35.7627 76.321 35.5593 76.321 35.3131C76.321 35.0669 76.2539 34.8655 76.1196 34.7089C75.9854 34.5502 75.6588 34.3538 75.14 34.1199C74.7087 33.9225 74.4127 33.7303 74.252 33.5431C74.0892 33.3559 74.0078 33.127 74.0078 32.8564C74.0078 32.4923 74.1401 32.1962 74.4045 31.9684C74.6711 31.7385 75.0139 31.6235 75.433 31.6235C75.6446 31.6235 75.8551 31.6459 76.0647 31.6907C76.2804 31.7334 76.3953 31.7548 76.4095 31.7548C76.4441 31.7548 76.4696 31.7497 76.4858 31.7395C76.5021 31.7293 76.5164 31.71 76.5286 31.6815Z" fill="black" fill-opacity="0.7"/>
<path d="M72.7139 31.6815L72.8268 31.712C72.8064 31.8239 72.7647 31.9379 72.7017 32.0538C72.7383 32.302 72.7566 32.5065 72.7566 32.6672H72.6132C72.5765 32.3844 72.4687 32.1678 72.2897 32.0172C72.1106 31.8646 71.8746 31.7883 71.5817 31.7883C71.3274 31.7883 71.1188 31.8636 70.9561 32.0142C70.7933 32.1647 70.7119 32.356 70.7119 32.5879C70.7119 32.8076 70.7841 32.9958 70.9286 33.1525C71.0751 33.3091 71.3721 33.4892 71.8197 33.6926C72.3059 33.9164 72.6315 34.1239 72.7963 34.3152C72.9611 34.5044 73.0435 34.7394 73.0435 35.0201C73.0435 35.4108 72.899 35.7251 72.6101 35.9631C72.3232 36.2012 71.9408 36.3202 71.4626 36.3202C71.2389 36.3202 71.0018 36.2795 70.7516 36.1981C70.5013 36.1167 70.3589 36.076 70.3243 36.076C70.2857 36.076 70.2521 36.0862 70.2236 36.1066C70.1972 36.1249 70.1789 36.1493 70.1687 36.1798L70.0497 36.1554C70.066 36.0842 70.0863 36.016 70.1107 35.9509C70.1351 35.8838 70.1646 35.8187 70.1992 35.7556C70.1789 35.6315 70.1636 35.5176 70.1534 35.4138C70.1433 35.3101 70.1382 35.2114 70.1382 35.1178H70.2694C70.2979 35.2826 70.3467 35.4301 70.4159 35.5603C70.4871 35.6885 70.5756 35.7973 70.6814 35.8868C70.7872 35.9764 70.9103 36.0445 71.0507 36.0913C71.191 36.1381 71.3457 36.1615 71.5145 36.1615C71.8034 36.1615 72.0415 36.0822 72.2286 35.9235C72.4138 35.7627 72.5063 35.5593 72.5063 35.3131C72.5063 35.0669 72.4392 34.8655 72.3049 34.7089C72.1707 34.5502 71.8441 34.3538 71.3253 34.1199C70.894 33.9225 70.598 33.7303 70.4373 33.5431C70.2745 33.3559 70.1931 33.127 70.1931 32.8564C70.1931 32.4923 70.3254 32.1962 70.5898 31.9684C70.8564 31.7385 71.1992 31.6235 71.6183 31.6235C71.8299 31.6235 72.0404 31.6459 72.25 31.6907C72.4657 31.7334 72.5806 31.7548 72.5948 31.7548C72.6294 31.7548 72.6549 31.7497 72.6711 31.7395C72.6874 31.7293 72.7017 31.71 72.7139 31.6815Z" fill="black" fill-opacity="0.7"/>
<path d="M65.8535 31.6937C65.9695 31.6958 66.0946 31.7059 66.2289 31.7242C66.3632 31.7405 66.5127 31.7639 66.6775 31.7944C66.7812 31.7782 66.8921 31.7639 67.0101 31.7517C67.1281 31.7375 67.2573 31.7263 67.3977 31.7181C67.5381 31.71 67.6968 31.7039 67.8738 31.6998C68.0508 31.6958 68.2481 31.6937 68.4658 31.6937C68.7222 31.6937 68.8798 31.7029 68.9388 31.7212C68.9978 31.7395 69.0273 31.7741 69.0273 31.825C69.0273 31.8494 69.0212 31.8728 69.009 31.8951C68.9989 31.9175 68.9734 31.9501 68.9327 31.9928C68.949 32.1027 68.9602 32.1962 68.9663 32.2736C68.9744 32.3509 68.9785 32.42 68.9785 32.4811V32.6672H68.8473C68.8229 32.3865 68.7476 32.1952 68.6215 32.0935C68.4974 31.9938 68.2247 31.944 67.8036 31.944H67.0895C67.0854 32.0457 67.0824 32.1495 67.0803 32.2552C67.0783 32.3081 67.0773 32.3712 67.0773 32.4445C67.0773 32.5157 67.0773 32.597 67.0773 32.6886V33.7811H67.7853C68.184 33.7811 68.4302 33.7557 68.5238 33.7048C68.6174 33.654 68.6754 33.5522 68.6978 33.3997H68.8198C68.8158 33.479 68.8056 33.5604 68.7893 33.6438C68.773 33.7252 68.7527 33.8086 68.7283 33.894C68.7771 34.0812 68.8015 34.2562 68.8015 34.4189H68.6703C68.6581 34.2603 68.6062 34.1514 68.5146 34.0924C68.4272 34.0354 68.2024 34.007 67.8402 34.007H67.0773V35.0446C67.0773 35.5125 67.1159 35.7882 67.1932 35.8716C67.2685 35.953 67.4801 35.9937 67.828 35.9937C68.3753 35.9937 68.7405 35.9326 68.9236 35.8105C69.1087 35.6885 69.2328 35.4555 69.2959 35.1117H69.4271C69.4149 35.2724 69.3925 35.4159 69.36 35.542C69.3295 35.6681 69.2898 35.7831 69.241 35.8868C69.2593 35.9316 69.2715 35.9682 69.2776 35.9967C69.2857 36.0232 69.2898 36.0476 69.2898 36.0699C69.2898 36.1412 69.2562 36.19 69.1891 36.2164C69.1281 36.2429 68.9907 36.2561 68.7771 36.2561C68.7568 36.2561 68.7262 36.2561 68.6855 36.2561C68.6469 36.2561 68.5981 36.2551 68.5391 36.2531C68.4801 36.251 68.4261 36.25 68.3773 36.25C68.3285 36.25 68.2847 36.25 68.2461 36.25C67.9002 36.25 67.6022 36.2419 67.3519 36.2256C67.1037 36.2093 66.885 36.1839 66.6958 36.1493C66.5554 36.1757 66.415 36.1981 66.2747 36.2164C66.1343 36.2327 65.9939 36.2439 65.8535 36.25V36.1432C66.0997 36.1391 66.2635 36.071 66.3448 35.9387C66.4303 35.8044 66.473 35.4392 66.473 34.8431V34.7241C66.473 34.7201 66.473 34.7089 66.473 34.6906C66.473 34.6722 66.474 34.6468 66.4761 34.6143C66.4781 34.5797 66.4791 34.5481 66.4791 34.5197C66.4791 34.4891 66.4791 34.4596 66.4791 34.4312V33.5126C66.4791 33.4983 66.4791 33.477 66.4791 33.4485C66.4791 33.418 66.4781 33.3793 66.4761 33.3325C66.474 33.2857 66.473 33.242 66.473 33.2013C66.473 33.1606 66.473 33.123 66.473 33.0884C66.473 32.5004 66.4313 32.1403 66.3479 32.0081C66.2645 31.8758 66.0997 31.8066 65.8535 31.8005V31.6937Z" fill="black" fill-opacity="0.7"/>
<path d="M60.3756 31.6937C60.4916 31.6978 60.6075 31.7059 60.7235 31.7181C60.8415 31.7303 60.9585 31.7476 61.0745 31.77C61.1518 31.7436 61.2118 31.7253 61.2545 31.7151C61.2993 31.7049 61.3349 31.6998 61.3613 31.6998C61.4549 31.6998 61.8567 32.122 62.5668 32.9663C62.9248 33.3915 63.2738 33.7964 63.6135 34.1809C63.9553 34.5634 64.292 34.9306 64.6237 35.2826V34.1809C64.6237 33.7618 64.6206 33.4159 64.6145 33.1433C64.6104 32.8707 64.6033 32.6672 64.5931 32.533C64.5708 32.2644 64.5352 32.0905 64.4863 32.0111C64.4456 31.9521 64.3907 31.9063 64.3215 31.8738C64.2524 31.8412 64.1527 31.8168 64.0225 31.8005L64.0255 31.6937C64.1232 31.6998 64.23 31.711 64.3459 31.7273C64.4639 31.7415 64.6023 31.7639 64.761 31.7944C64.9237 31.766 65.057 31.7446 65.1608 31.7303C65.2666 31.7141 65.3622 31.7019 65.4476 31.6937V31.8005C65.2971 31.8188 65.1933 31.8494 65.1364 31.8921C65.0753 31.9368 65.0316 32.0162 65.0051 32.1301C64.9644 32.2868 64.9339 32.5767 64.9136 32.9999C64.9034 33.2135 64.8953 33.4444 64.8892 33.6926C64.8831 33.9408 64.88 34.2104 64.88 34.5013V36.0486C64.88 36.0506 64.88 36.0598 64.88 36.076C64.882 36.0923 64.8841 36.1157 64.8861 36.1462C64.8902 36.1747 64.8922 36.2042 64.8922 36.2347C64.8942 36.2653 64.8963 36.2958 64.8983 36.3263L64.6847 36.2927C64.2697 35.7963 63.8963 35.3558 63.5647 34.9713C63.2351 34.5868 62.9442 34.2521 62.6919 33.9673C62.4417 33.6825 62.2036 33.417 61.9778 33.1708C61.752 32.9246 61.5363 32.6947 61.3308 32.4811V33.8361C61.3308 34.127 61.3318 34.3823 61.3339 34.6021C61.3379 34.8218 61.344 35.01 61.3522 35.1666C61.3603 35.3233 61.3705 35.4555 61.3827 35.5634C61.3969 35.6712 61.4122 35.7546 61.4285 35.8136C61.4875 36.013 61.6746 36.1228 61.99 36.1432V36.25C61.874 36.248 61.7509 36.2388 61.6207 36.2225C61.4926 36.2063 61.3522 36.1818 61.1996 36.1493C61.0307 36.1798 60.8893 36.2032 60.7754 36.2195C60.6635 36.2337 60.5608 36.2439 60.4672 36.25V36.1462C60.7011 36.1442 60.8598 36.0527 60.9432 35.8716C61.0267 35.6885 61.0684 35.2185 61.0684 34.4617V32.951C61.0684 32.4465 61.0195 32.1301 60.9219 32.002C60.8283 31.8717 60.6462 31.8046 60.3756 31.8005V31.6937Z" fill="black" fill-opacity="0.7"/>
<path d="M58.0929 31.6937C58.2211 31.6998 58.3604 31.711 58.511 31.7273C58.6615 31.7436 58.8294 31.766 59.0145 31.7944C59.2119 31.7639 59.3828 31.7415 59.5272 31.7273C59.6737 31.711 59.809 31.6998 59.9331 31.6937V31.8005C59.689 31.8066 59.5252 31.8758 59.4418 32.0081C59.3584 32.1403 59.3167 32.4546 59.3167 32.951V34.9561C59.3167 35.4688 59.3584 35.7933 59.4418 35.9296C59.5232 36.0618 59.6869 36.133 59.9331 36.1432V36.25C59.809 36.2439 59.6737 36.2337 59.5272 36.2195C59.3807 36.2032 59.2098 36.1798 59.0145 36.1493C58.8151 36.1798 58.6422 36.2032 58.4957 36.2195C58.3492 36.2337 58.215 36.2439 58.0929 36.25L58.0898 36.1432C58.336 36.1351 58.5018 36.0638 58.5873 35.9296C58.6727 35.7933 58.7155 35.4688 58.7155 34.9561V32.9877C58.7155 32.475 58.6727 32.1515 58.5873 32.0172C58.5039 31.8829 58.3381 31.8107 58.0898 31.8005L58.0929 31.6937Z" fill="black" fill-opacity="0.7"/>
<path d="M57.095 31.6815L57.2079 31.712C57.1875 31.8239 57.1458 31.9379 57.0828 32.0538C57.1194 32.302 57.1377 32.5065 57.1377 32.6672H56.9943C56.9576 32.3844 56.8498 32.1678 56.6708 32.0172C56.4917 31.8646 56.2557 31.7883 55.9628 31.7883C55.7085 31.7883 55.4999 31.8636 55.3372 32.0142C55.1744 32.1647 55.093 32.356 55.093 32.5879C55.093 32.8076 55.1652 32.9958 55.3097 33.1525C55.4562 33.3091 55.7532 33.4892 56.2008 33.6926C56.6871 33.9164 57.0126 34.1239 57.1774 34.3152C57.3422 34.5044 57.4246 34.7394 57.4246 35.0201C57.4246 35.4108 57.2801 35.7251 56.9912 35.9631C56.7043 36.2012 56.3219 36.3202 55.8438 36.3202C55.62 36.3202 55.3829 36.2795 55.1327 36.1981C54.8824 36.1167 54.74 36.076 54.7054 36.076C54.6668 36.076 54.6332 36.0862 54.6047 36.1066C54.5783 36.1249 54.56 36.1493 54.5498 36.1798L54.4308 36.1554C54.4471 36.0842 54.4674 36.016 54.4918 35.9509C54.5162 35.8838 54.5457 35.8187 54.5803 35.7556C54.56 35.6315 54.5447 35.5176 54.5345 35.4138C54.5244 35.3101 54.5193 35.2114 54.5193 35.1178H54.6505C54.679 35.2826 54.7278 35.4301 54.797 35.5603C54.8682 35.6885 54.9567 35.7973 55.0625 35.8868C55.1683 35.9764 55.2914 36.0445 55.4318 36.0913C55.5721 36.1381 55.7268 36.1615 55.8956 36.1615C56.1845 36.1615 56.4226 36.0822 56.6097 35.9235C56.7949 35.7627 56.8875 35.5593 56.8875 35.3131C56.8875 35.0669 56.8203 34.8655 56.686 34.7089C56.5518 34.5502 56.2252 34.3538 55.7064 34.1199C55.2751 33.9225 54.9791 33.7303 54.8184 33.5431C54.6556 33.3559 54.5742 33.127 54.5742 32.8564C54.5742 32.4923 54.7065 32.1962 54.9709 31.9684C55.2375 31.7385 55.5803 31.6235 55.9994 31.6235C56.211 31.6235 56.4215 31.6459 56.6311 31.6907C56.8468 31.7334 56.9617 31.7548 56.976 31.7548C57.0105 31.7548 57.036 31.7497 57.0522 31.7395C57.0685 31.7293 57.0828 31.71 57.095 31.6815Z" fill="black" fill-opacity="0.7"/>
<path d="M48.8888 31.6937C49.0109 31.6998 49.1441 31.711 49.2886 31.7273C49.433 31.7415 49.6039 31.7639 49.8013 31.7944C49.9193 31.7782 50.023 31.7649 50.1125 31.7548C50.2041 31.7426 50.2814 31.7334 50.3445 31.7273C50.4076 31.7192 50.4666 31.7131 50.5215 31.709C50.5785 31.7029 50.6313 31.6978 50.6802 31.6937L50.6832 31.8005C50.5428 31.8168 50.434 31.8453 50.3567 31.886C50.2794 31.9246 50.2275 31.9796 50.201 32.0508C50.1644 32.1464 50.137 32.3173 50.1187 32.5635C50.1024 32.8097 50.0942 33.1423 50.0942 33.5614C50.0942 33.8157 50.0983 34.0395 50.1064 34.2328C50.1166 34.4261 50.1319 34.5929 50.1522 34.7333C50.1929 35.014 50.257 35.2317 50.3445 35.3864C50.5785 35.8034 50.9742 36.012 51.5316 36.012C52.0728 36.012 52.4573 35.8431 52.6852 35.5054C52.9171 35.1676 53.0331 34.5807 53.0331 33.7445V33.0121C53.0331 32.4994 52.9904 32.1729 52.9049 32.0325C52.8215 31.8901 52.6536 31.8117 52.4014 31.7975V31.6937C52.5295 31.6998 52.6557 31.712 52.7798 31.7303C52.9039 31.7466 53.03 31.768 53.1582 31.7944C53.2925 31.7639 53.4196 31.7405 53.5397 31.7242C53.6597 31.708 53.7716 31.6978 53.8754 31.6937V31.7975C53.6495 31.8097 53.498 31.8789 53.4207 32.005C53.3454 32.1291 53.3077 32.4648 53.3077 33.0121V33.8055C53.3077 34.6844 53.1541 35.3243 52.8469 35.7251C52.5417 36.1259 52.0575 36.3263 51.3943 36.3263C51.0037 36.3263 50.6731 36.2673 50.4025 36.1493C50.1339 36.0293 49.9294 35.8502 49.7891 35.6122C49.6873 35.4413 49.6141 35.2368 49.5693 34.9988C49.5246 34.7628 49.5022 34.4322 49.5022 34.007V32.9633C49.5022 32.4526 49.4605 32.1342 49.3771 32.0081C49.2937 31.8819 49.1309 31.8127 48.8888 31.8005V31.6937Z" fill="black" fill-opacity="0.7"/>
<path d="M45.9408 34.5013C45.9408 34.9062 45.9459 35.2155 45.9561 35.4291C45.9683 35.6407 45.9866 35.7749 46.011 35.8319C46.0517 35.9255 46.1239 35.9947 46.2277 36.0394C46.3335 36.0842 46.4779 36.1066 46.661 36.1066C46.9926 36.1066 47.252 36.016 47.4392 35.835C47.6284 35.6519 47.723 35.3986 47.723 35.0751C47.723 34.6926 47.606 34.4057 47.3721 34.2145C47.1381 34.0212 46.7882 33.9246 46.3223 33.9246C46.2775 33.9246 46.2236 33.9266 46.1605 33.9307C46.0995 33.9327 46.0262 33.9378 45.9408 33.9459V34.5013ZM47.0669 33.7872V33.83C47.4901 33.8747 47.8207 34.0009 48.0587 34.2084C48.2927 34.4118 48.4097 34.6773 48.4097 35.0049C48.4097 35.4036 48.2581 35.7149 47.955 35.9387C47.6518 36.1625 47.2307 36.2744 46.6915 36.2744C46.5328 36.2744 46.366 36.2642 46.191 36.2439C46.0181 36.2236 45.8309 36.192 45.6295 36.1493C45.5278 36.1656 45.4342 36.1798 45.3488 36.192C45.2633 36.2022 45.184 36.2113 45.1107 36.2195C45.0375 36.2256 44.9683 36.2317 44.9032 36.2378C44.8401 36.2439 44.7781 36.248 44.717 36.25V36.1432C44.9673 36.1371 45.1331 36.0669 45.2145 35.9326C45.2999 35.7963 45.3427 35.4606 45.3427 34.9255V33.0243C45.3427 32.4913 45.2999 32.1556 45.2145 32.0172C45.1311 31.8829 44.9653 31.8107 44.717 31.8005V31.6937C44.8452 31.6998 44.9785 31.711 45.1168 31.7273C45.2552 31.7436 45.4108 31.766 45.5837 31.7944C45.7933 31.7517 45.9805 31.7202 46.1453 31.6998C46.3121 31.6795 46.4626 31.6693 46.5969 31.6693C47.0628 31.6693 47.4229 31.7609 47.6772 31.944C47.9316 32.1271 48.0587 32.3855 48.0587 32.7191C48.0587 32.9877 47.9702 33.2176 47.7932 33.4088C47.6162 33.6001 47.3741 33.7262 47.0669 33.7872ZM45.9438 33.7506C46.1229 33.7628 46.2572 33.7689 46.3467 33.7689C46.7231 33.7689 47.0018 33.6906 47.1829 33.5339C47.3639 33.3773 47.4545 33.1352 47.4545 32.8076C47.4545 32.4862 47.3639 32.243 47.1829 32.0782C47.0038 31.9135 46.7404 31.8311 46.3925 31.8311C46.307 31.8311 46.2297 31.8361 46.1605 31.8463C46.0934 31.8545 46.0293 31.8677 45.9683 31.886C45.9581 32.0284 45.951 32.1779 45.9469 32.3346C45.9428 32.4892 45.9408 32.6591 45.9408 32.8442L45.9438 33.7506Z" fill="black" fill-opacity="0.7"/>
</svg>
