<svg width="24" height="24" viewBox="0 0 24 24" fill="none" xmlns="http://www.w3.org/2000/svg">
<path d="M12.6294 2C12.5236 1.99981 12.4191 2.02335 12.3237 2.06888C12.2282 2.11441 12.1442 2.18077 12.0777 2.26308L11.9519 2.35643C9.51198 1.60113 6.7284 2.15559 4.79065 4.02262C3.97897 4.79245 3.37515 5.75505 3.03537 6.82089C2.69559 7.88674 2.63087 9.0212 2.84724 10.1188L2.77652 10.1838L1.67468 11.2446C1.46154 11.4468 1.29181 11.6903 1.17581 11.9602C1.05982 12.2302 1 12.5209 1 12.8146C1 13.1084 1.05982 13.3991 1.17581 13.6691C1.29181 13.939 1.46154 14.1825 1.67468 14.3847C2.23762 14.9278 3.01838 15.1315 3.74398 14.9957C3.83309 15.4044 4.04101 15.7934 4.37057 16.1102C4.80479 16.5289 5.36915 16.7453 5.93774 16.7609C5.9533 17.3083 6.17819 17.8514 6.61242 18.2701C7.04665 18.6887 7.61242 18.9066 8.18101 18.9207C8.19516 19.4681 8.42146 20.0126 8.85569 20.4313C9.2714 20.8258 9.81596 21.0564 10.3886 21.0803C10.9612 21.1042 11.5231 20.9199 11.9702 20.5614L12.5883 21.1555C13.4936 22.0282 14.9617 22.0282 15.867 21.1555C16.2998 20.7396 16.5247 20.1993 16.5445 19.6534C17.1102 19.6364 17.6689 19.42 18.1003 19.0041C18.5317 18.5883 18.758 18.0466 18.775 17.5006C19.3497 17.4798 19.8968 17.2488 20.3125 16.8514C20.6562 16.5218 20.8684 16.1131 20.9504 15.6859C21.3145 15.7496 21.6884 15.727 22.0422 15.6199C22.3959 15.5128 22.7196 15.3242 22.9872 15.0692C23.2005 14.867 23.3704 14.6235 23.4866 14.3534C23.6027 14.0834 23.6626 13.7925 23.6626 13.4985C23.6626 13.2046 23.6027 12.9137 23.4866 12.6436C23.3704 12.3736 23.2005 12.13 22.9872 11.9278L21.9688 10.9476L22.1767 10.1697C22.5958 8.57917 22.3829 6.88818 21.5826 5.45118C20.4002 3.32107 18.106 2.00566 15.6251 2.00566H13.8854L13.6605 2H12.6294ZM16.0989 7.25598L19.5006 10.5332L19.5049 10.536L21.9674 12.9094C22.0473 12.9853 22.1111 13.0766 22.1546 13.1779C22.1981 13.2792 22.2206 13.3883 22.2206 13.4985C22.2206 13.6088 22.1981 13.7178 22.1546 13.8191C22.1111 13.9204 22.0473 14.0118 21.9674 14.0876C21.802 14.2438 21.5831 14.3308 21.3556 14.3308C21.1281 14.3308 20.9093 14.2438 20.7439 14.0876L18.8754 12.2885C18.7385 12.1571 18.556 12.0837 18.3662 12.0837C18.1765 12.0837 17.994 12.1571 17.8571 12.2885L17.8372 12.3055C17.7709 12.3688 17.7181 12.445 17.6821 12.5294C17.646 12.6137 17.6274 12.7045 17.6274 12.7963C17.6274 12.888 17.646 12.9788 17.6821 13.0631C17.7181 13.1475 17.7709 13.2237 17.8372 13.2871L19.2941 14.6902C19.6336 15.0155 19.6336 15.5445 19.2941 15.8712C19.1439 16.0136 18.9488 16.0992 18.7423 16.1134C18.5358 16.1276 18.3309 16.0695 18.1626 15.949C18.0221 15.8475 17.8505 15.7985 17.6777 15.8103C17.5048 15.8222 17.3416 15.8943 17.2163 16.0141C17.0939 16.1311 17.02 16.2899 17.0093 16.4589C16.9985 16.6279 17.0517 16.7948 17.1583 16.9264C17.2853 17.0854 17.3479 17.2863 17.3338 17.4893C17.3196 17.6923 17.2297 17.8826 17.082 18.0225C16.9296 18.167 16.7311 18.2531 16.5215 18.2655C16.3119 18.2779 16.1046 18.2159 15.9363 18.0904C15.7965 17.9856 15.6242 17.9335 15.4498 17.9433C15.2754 17.9532 15.11 18.0243 14.983 18.1442C14.859 18.261 14.7838 18.4205 14.7725 18.5905C14.7612 18.7605 14.8147 18.9285 14.9221 19.0607C15.0527 19.2216 15.1176 19.426 15.1037 19.6327C15.0898 19.8395 14.9981 20.0333 14.8472 20.1753C14.6798 20.3342 14.4578 20.4227 14.2269 20.4227C13.9961 20.4227 13.7741 20.3342 13.6067 20.1753L12.9943 19.5855L13.2178 19.3705C13.4311 19.1683 13.601 18.9247 13.7172 18.6547C13.8333 18.3846 13.8932 18.0937 13.8932 17.7998C13.8932 17.5058 13.8333 17.2149 13.7172 16.9449C13.601 16.6748 13.4311 16.4313 13.2178 16.2291C12.7947 15.8244 12.2358 15.5923 11.6506 15.5784C11.6331 15.0058 11.3907 14.463 10.9759 14.0678C10.5523 13.6634 9.99285 13.4318 9.40731 13.4186C9.38984 12.8459 9.14744 12.3032 8.73263 11.908C8.46091 11.6494 8.13149 11.4592 7.77164 11.3532C7.4118 11.2472 7.03188 11.2284 6.66334 11.2984C6.56986 10.8729 6.35172 10.4848 6.03675 10.1838C5.79535 9.95297 5.50747 9.77627 5.19234 9.66553C4.87721 9.55479 4.54207 9.51257 4.20932 9.54168C4.09812 8.71287 4.185 7.8695 4.46283 7.08076C4.74066 6.29202 5.20153 5.58038 5.80762 5.00423C6.4202 4.41884 7.15473 3.97627 7.95854 3.70826C8.76234 3.44024 9.6155 3.35342 10.4568 3.45402L8.39883 4.96745C8.13552 5.15878 7.91371 5.40149 7.74681 5.68092C7.5799 5.96036 7.47136 6.27072 7.42774 6.59327C7.38411 6.91582 7.40631 7.24386 7.493 7.55759C7.57968 7.87133 7.72904 8.16423 7.93207 8.41863C8.34289 8.93319 8.93616 9.26967 9.58862 9.35818C10.2411 9.44668 10.9025 9.2804 11.4356 8.89388L13.6647 7.2574L16.0989 7.25598ZM9.23617 6.10606L12.9023 3.41442H13.6605C13.7298 3.41376 13.7992 3.41564 13.8684 3.42008H15.6251C17.6109 3.42008 19.4228 4.47382 20.3464 6.13859C20.9716 7.26447 21.1357 8.57281 20.8089 9.80759L20.8047 9.82174L16.9009 6.04948C16.7686 5.91676 16.589 5.84198 16.4016 5.84156H13.4313C13.2812 5.84185 13.1351 5.8899 13.0141 5.97876L10.5983 7.75244C10.3608 7.92203 10.0677 7.99465 9.77855 7.95548C9.48943 7.91632 9.22614 7.76833 9.04239 7.54169C8.95686 7.43633 8.8938 7.31457 8.85709 7.18392C8.82039 7.05327 8.81082 6.91648 8.82897 6.78199C8.84713 6.6475 8.89262 6.51815 8.96265 6.4019C9.03268 6.28566 9.12576 6.18497 9.23617 6.10606ZM9.86134 18.2842L9.87549 18.2701L10.9759 17.2092L10.9886 17.1979C11.1549 17.0472 11.372 16.9647 11.5965 16.9671C11.821 16.9694 12.0363 17.0564 12.1994 17.2107C12.2794 17.2865 12.3431 17.3779 12.3866 17.4792C12.4301 17.5804 12.4526 17.6895 12.4526 17.7998C12.4526 17.91 12.4301 18.0191 12.3866 18.1204C12.3431 18.2217 12.2794 18.313 12.1994 18.3889L11.0975 19.4497C10.9321 19.6059 10.7133 19.6928 10.4858 19.6928C10.2583 19.6928 10.0395 19.6059 9.87407 19.4497C9.79513 19.375 9.732 19.2851 9.68842 19.1855C9.64484 19.086 9.62171 18.9786 9.62039 18.8699C9.61907 18.7612 9.63959 18.6534 9.68074 18.5528C9.72189 18.4522 9.78424 18.3608 9.86134 18.2842ZM9.96884 16.2163L9.95469 16.2291L8.85428 17.2899L8.84013 17.3026C8.67373 17.4528 8.45684 17.5347 8.2327 17.5321C8.00856 17.5295 7.79365 17.4425 7.6308 17.2885C7.5517 17.2134 7.48854 17.1232 7.44507 17.0232C7.4016 16.9232 7.37872 16.8154 7.37779 16.7064C7.37687 16.5974 7.39792 16.4893 7.43969 16.3885C7.48146 16.2878 7.54309 16.1965 7.6209 16.1201L7.6308 16.1102L8.73122 15.0494L8.74112 15.0395C8.90724 14.8876 9.12472 14.8041 9.34985 14.806C9.57499 14.8078 9.79108 14.8948 9.95469 15.0494C10.0339 15.1242 10.0972 15.2141 10.1409 15.3138C10.1846 15.4135 10.2078 15.521 10.2091 15.6299C10.2104 15.7387 10.1898 15.8468 10.1486 15.9475C10.1073 16.0483 10.0462 16.1397 9.96884 16.2163ZM7.71284 14.0678L6.61101 15.1286L6.60111 15.1385C6.43499 15.2905 6.21751 15.374 5.99237 15.3721C5.76724 15.3703 5.55115 15.2833 5.38753 15.1286C5.30754 15.0528 5.24384 14.9614 5.2003 14.8601C5.15677 14.7589 5.13431 14.6498 5.13431 14.5395C5.13431 14.4293 5.15677 14.3202 5.2003 14.2189C5.24384 14.1176 5.30754 14.0263 5.38753 13.9504L6.48795 12.8896C6.65343 12.733 6.87259 12.6458 7.1004 12.6458C7.32821 12.6458 7.54736 12.733 7.71284 12.8896C7.79215 12.9647 7.85551 13.055 7.89911 13.1551C7.94271 13.2553 7.96566 13.3632 7.96658 13.4724C7.9675 13.5816 7.94639 13.6899 7.90449 13.7907C7.86259 13.8916 7.80077 13.9829 7.72274 14.0593L7.71284 14.0678ZM5.01696 12.3436L3.91654 13.4045C3.75106 13.561 3.5319 13.6483 3.30409 13.6483C3.07628 13.6483 2.85713 13.561 2.69165 13.4045C2.61144 13.3286 2.54754 13.2371 2.50388 13.1357C2.46021 13.0343 2.43769 12.9251 2.43769 12.8146C2.43769 12.7042 2.46021 12.595 2.50388 12.4936C2.54754 12.3922 2.61144 12.3007 2.69165 12.2248L3.79348 11.164C3.95888 11.0079 4.17775 10.9209 4.40522 10.9209C4.63269 10.9209 4.85155 11.0079 5.01696 11.164C5.09717 11.2399 5.16107 11.3313 5.20473 11.4328C5.2484 11.5342 5.27092 11.6434 5.27092 11.7538C5.27092 11.8642 5.2484 11.9735 5.20473 12.0749C5.16107 12.1763 5.09717 12.2678 5.01696 12.3436Z" fill="#015656"/>
</svg>
